<svg width="1632" height="959" viewBox="0 0 1632 959" fill="none" xmlns="http://www.w3.org/2000/svg">
<g clip-path="url(#clip0_26_270)">
<g style="mix-blend-mode:multiply" opacity="0.47">
<path d="M413.825 688.864C413.825 688.864 347.444 592.252 295.42 524.26C243.396 456.268 234.415 443.745 234.415 443.745C234.415 443.745 150.102 477.741 144.695 475.939C139.318 474.137 112.405 450.893 101.652 459.842C90.8992 468.792 -6 594.024 -6 594.024L74.7392 561.83C74.7392 561.83 110.633 483.117 128.565 483.117C146.497 483.117 229.039 477.741 229.039 477.741C229.039 477.741 250.575 602.973 281.062 622.674C311.55 642.345 327.251 946.873 338.004 954.021C348.757 961.168 512.496 805.147 517.873 812.294C523.249 819.442 449.689 701.357 449.689 701.357L413.795 688.834L413.825 688.864Z" fill="#7C5CA6"/>
<path d="M1158.35 758.629C1158.35 758.629 941.272 531.409 930.489 511.739C919.736 492.068 779.794 354.313 779.794 354.313C779.794 354.313 743.9 368.638 731.344 365.034C718.789 361.46 670.339 254.096 661.389 252.325C652.408 250.522 632.673 245.177 632.673 245.177L609.365 230.852C609.365 230.852 573.501 221.902 568.094 221.902C562.687 221.902 539.379 275.569 535.805 297.042C532.231 318.514 503.515 309.565 499.91 300.615C496.336 291.666 478.374 293.468 478.374 293.468C478.374 293.468 446.084 331.038 435.301 365.034C424.548 399.03 306.143 517.114 306.143 517.114L325.877 543.963C325.877 543.963 469.393 399.06 469.393 391.882C469.393 384.704 478.374 350.739 478.374 350.739L508.861 329.266L555.508 334.642L592.563 250.278L639.18 348.295L657.784 406.208C657.784 406.208 637.714 467.877 658.853 513.388C672.508 542.772 703.332 565.405 726.121 589.108C738.615 602.089 748.665 615.406 752.178 630.343C760.09 664.094 725.479 688.957 725.54 692.409C725.937 710.613 725.937 730.04 725.937 730.04L675.716 846.322C675.716 846.322 717.75 809.577 762.748 771.947C778.358 758.874 772.279 718.586 786.942 706.795C815.261 684.07 860.869 693.57 867.956 691.859C896.641 684.926 924.501 641.552 950.192 637.001C988.072 630.282 1019.63 664.675 1029.13 670.997C1061.42 692.47 1086.53 733.613 1086.53 733.613C1086.53 733.613 1086.53 756.858 1082.92 769.381C1079.35 781.904 1106.26 806.951 1124.2 817.672C1142.13 828.393 1258.76 846.292 1267.71 860.617C1276.69 874.943 1294.62 917.858 1307.18 932.183C1319.74 946.508 1361.01 959.031 1361.01 959.031L1303.61 844.52L1167.27 771.183L1158.29 758.66L1158.35 758.629Z" fill="#7C5CA6"/>
<path d="M1601.48 824.818L1440 704.962C1440 704.962 1328.78 628.02 1298.26 590.451C1267.77 552.881 1244.43 484.889 1210.34 483.118C1196.69 482.415 1170.87 481.315 1151.14 452.695C1131.41 424.075 1118.85 406.176 1118.85 406.176L1065.02 404.374L946.619 504.56L982.513 542.129L1045.29 465.188L1090.14 445.517L1111.67 434.766L1134.98 463.386L1172.65 502.758C1172.65 502.758 1178.57 555.508 1179.82 561.8C1181.72 571.422 1091.23 554.347 1091.91 556.424C1093.71 561.8 1369.99 728.176 1369.99 728.176L1285.67 733.552L1411.26 756.796L1520.68 790.792L1556.58 833.737L1596.05 842.687L1631.94 849.834L1601.45 824.788L1601.48 824.818Z" fill="#7C5CA6"/>
<path d="M1031.33 411.124C1032.12 401.075 1032.55 390.965 1032.55 380.794C1032.55 279.264 992.899 183.812 920.897 112.002C848.925 40.1925 753.187 0.667969 651.369 0.667969C549.552 0.667969 453.844 40.1925 381.842 112.002C309.839 183.782 270.188 279.264 270.188 380.794C270.188 422.151 276.786 462.53 289.433 500.68C303.424 486.477 322.547 466.807 341.884 446.189C411.473 371.905 419.599 353.67 420.516 350.768C432.246 313.749 465.636 274.621 467.041 272.972L471.715 267.535L478.832 266.832C479.23 266.802 481.337 266.588 484.239 266.588C504.921 266.588 513.719 275.537 517.445 282.379C518.24 282.776 519.462 283.235 520.714 283.448C523.28 270.07 530.764 250.094 537.088 235.463C540.907 226.605 544.664 218.847 547.902 213.043C551.629 206.354 557.891 195.175 570.325 195.175C572.188 195.175 577.901 195.175 615.933 204.644L618.621 205.316L642.082 219.733C648.681 221.504 661.145 224.742 667.132 225.933C679.138 228.316 684.881 238.273 709.9 284.853C719.064 301.897 733.758 329.265 740.906 338.734C749.735 337.848 765.864 332.625 775.426 328.837L786.271 324.531L794.61 332.717C824.7 362.314 917.017 453.795 942.678 486.141L1031.36 411.124H1031.33Z" fill="#EEC92B"/>
</g>
</g>
<defs>
<clipPath id="clip0_26_270">
<rect width="1638" height="958.332" fill="white" transform="translate(-6 0.667969)"/>
</clipPath>
</defs>
</svg>
