<svg width="209" height="181" viewBox="0 0 209 181" fill="none" xmlns="http://www.w3.org/2000/svg">
<path opacity="0.5" d="M176.721 176.731L104.884 52.3132L33.0469 176.731H176.721ZM46.4305 171.243L104.884 70.9759L163.337 171.243H145L104.628 101.313L64.256 171.243H46.4538H46.4305ZM75.9071 171.243L104.709 121.138L133.721 171.243H75.9071Z" fill="white"/>
<path d="M170.197 113.557L171.593 112.592C181.034 106.08 187.883 96.3595 190.872 85.2084C194.255 72.6271 192.523 59.4876 186.011 48.2086C179.5 36.9296 168.988 28.8599 156.418 25.4878C152.267 24.3715 148 23.8134 143.744 23.8134C136.663 23.8134 129.488 25.4297 123 28.4994L121.488 29.2203L104.767 0.255371L0.814453 180.289H208.732L170.197 113.545V113.557ZM127.511 36.8715C132.581 34.5459 138.197 33.3133 143.744 33.3133C147.174 33.3133 150.616 33.7668 153.976 34.6622C164.069 37.3482 172.534 43.8365 177.802 52.9295C183.046 62.0109 184.441 72.5922 181.72 82.72C179.325 91.6619 174.093 99.1967 166.593 104.511L165.441 105.325L126.244 37.4412L127.511 36.8598V36.8715ZM104.767 18.9181L192.558 170.975H16.9772L104.767 18.9181Z" fill="white"/>
</svg>
