<svg width="182" height="22" viewBox="0 0 182 22" fill="none" xmlns="http://www.w3.org/2000/svg">
<g clip-path="url(#clip0_14032_42272)">
<path d="M20.3003 13.4672C22.959 11.7293 23.8289 8.18438 22.22 5.39825C21.4138 4.00073 20.1106 2.9999 18.5516 2.58198C17.1071 2.19419 15.5985 2.35276 14.2706 3.02361L12.4576 -0.114746L8.69437 6.40304L-0.00390625 21.4669H24.9192L20.3003 13.4672ZM18.1252 4.17857C19.2585 4.4804 20.2015 5.20806 20.7889 6.22124C21.9433 8.21847 21.3436 10.7517 19.4714 12.0311L15.0985 4.45817C16.0406 4.00518 17.1032 3.90638 18.1252 4.17857ZM12.4576 3.19305L22.053 19.8126H16.4387L9.64927 8.05693L12.4571 3.19354L12.4576 3.19305ZM2.86226 19.8126L8.69388 9.71429L14.5255 19.8126H2.86226Z" fill="url(#paint0_linear_14032_42272)"/>
<path d="M20.3198 13.4281C22.9785 11.6902 23.8485 8.14532 22.2395 5.35919C21.4333 3.96167 20.1301 2.96084 18.5711 2.54291C17.1267 2.15513 15.618 2.3137 14.2901 2.98455L12.4772 -0.153809L8.7139 6.36397L0.015625 21.4279H24.9387L20.3198 13.4281ZM18.1448 4.13951C19.278 4.44134 20.221 5.169 20.8084 6.18218C21.9629 8.17941 21.3632 10.7126 19.4909 11.9921L15.1181 4.41911C16.0601 3.96612 17.1227 3.86732 18.1448 4.13951ZM12.4772 3.15399L22.0725 19.7735H16.4583L9.6688 8.01787L12.4767 3.15448L12.4772 3.15399ZM2.88179 19.7735L8.71341 9.67523L14.545 19.7735H2.88179Z" fill="url(#paint1_linear_14032_42272)"/>
<path d="M41.4618 15.1529H37.9504V21.436H33.3281V0.484375H41.9165C46.9305 0.484375 49.9633 3.44535 49.9633 7.72742V7.78454C49.9633 12.6341 46.182 15.1474 41.4674 15.1474L41.4618 15.1529ZM45.2727 7.81955C45.2727 5.75406 43.833 4.64669 41.5191 4.64669H37.9448V11.0495H41.606C43.9199 11.0495 45.2672 9.67131 45.2672 7.87667V7.81955H45.2727Z" fill="white"/>
<path d="M52.543 21.4378V0.484375H68.3964V4.58773H57.1375V8.84032H67.0436V12.9437H57.1375V17.3455H68.5461V21.4489H52.543V21.4378Z" fill="white"/>
<path d="M84.9239 21.4378L80.4218 14.7346H76.7902V21.4378H72.168V0.484375H81.7747C86.7314 0.484375 89.7014 3.08974 89.7014 7.39945V7.45657C89.7014 10.8376 87.8717 12.9658 85.1993 13.9534L90.3335 21.436H84.9221L84.9239 21.4378ZM85.0163 7.64082C85.0163 5.66746 83.6339 4.64484 81.3847 4.64484H76.792V10.6608H81.4771C83.7282 10.6608 85.0163 9.46126 85.0163 7.69979V7.64267V7.64082Z" fill="white"/>
<path d="M102.952 21.9979C96.6867 21.9979 92.0312 17.176 92.0312 11.0753V11.0164C92.0312 4.98017 96.5925 0.0366211 103.139 0.0366211C107.153 0.0366211 109.561 1.36878 111.538 3.31083L108.557 6.73612C106.913 5.24734 105.244 4.34081 103.109 4.34081C99.5218 4.34081 96.9307 7.31284 96.9307 10.9537V11.0127C96.9307 14.6535 99.4571 17.6827 103.109 17.6827C105.541 17.6827 107.035 16.7117 108.709 15.1934L111.69 18.1949C109.496 20.5331 107.064 21.9869 102.958 21.9869L102.952 21.9979Z" fill="white"/>
<path d="M124.054 21.9979C117.48 21.9979 112.766 17.1133 112.766 11.0753V11.0164C112.766 4.98017 117.543 0.0366211 124.111 0.0366211C130.68 0.0366211 135.4 4.92121 135.4 10.9592V11.0182C135.4 17.0544 130.622 21.9979 124.054 21.9979ZM130.506 11.0182C130.506 7.37732 127.828 4.34818 124.054 4.34818C120.28 4.34818 117.667 7.32021 117.667 10.9611V11.02C117.667 14.6609 120.345 17.6901 124.119 17.6901C127.893 17.6901 130.506 14.718 130.506 11.0772V11.0182Z" fill="white"/>
<path d="M160.855 21.4544L171.198 0.0366211L181.54 21.4562H176.354L171.198 10.7971L166.06 21.4562H160.855V21.4544Z" fill="white"/>
<path d="M158.941 0.49173V21.9998L143.169 9.26409V21.4194H138.262V0.0366211L154.034 12.7226V0.49173H158.941Z" fill="white"/>
</g>
<defs>
<linearGradient id="paint0_linear_14032_42272" x1="-0.113079" y1="23.6746" x2="20.3857" y2="3.17583" gradientUnits="userSpaceOnUse">
<stop stop-color="#FC3519"/>
<stop offset="1" stop-color="#F0D136"/>
</linearGradient>
<linearGradient id="paint1_linear_14032_42272" x1="2.82663" y1="21.9045" x2="21.3237" y2="3.40741" gradientUnits="userSpaceOnUse">
<stop stop-color="#FC3519"/>
<stop offset="1" stop-color="#F0D136"/>
</linearGradient>
<clipPath id="clip0_14032_42272">
<rect width="181.538" height="22" fill="white"/>
</clipPath>
</defs>
</svg>
