<svg width="1277" height="292" viewBox="0 0 1277 292" fill="none" xmlns="http://www.w3.org/2000/svg">
<g clip-path="url(#clip0_1391_11470)">
<path d="M352.016 109.322H333.396V142.639H308.887V31.542H354.427C381.014 31.542 397.096 47.2426 397.096 69.9485V70.2514C397.096 95.9664 377.045 109.293 352.045 109.293L352.016 109.322V109.322ZM372.223 70.437C372.223 59.4847 364.589 53.6128 352.32 53.6128H333.367V87.5641H352.78C365.05 87.5641 372.194 80.256 372.194 70.7399V70.437H372.223Z" fill="white"/>
<path d="M410.776 142.648V31.542H494.84V53.3001H435.139V75.8497H487.666V97.6078H435.139V120.949H495.633V142.707H410.776V142.648V142.648Z" fill="white"/>
<path d="M582.46 142.648L558.588 107.104H539.331V142.648H514.822V31.542H565.761C592.045 31.542 607.793 45.357 607.793 68.2094V68.5123C607.793 86.4405 598.091 97.7251 583.921 102.962L611.145 142.639H582.451L582.46 142.648ZM582.95 69.4893C582.95 59.0255 575.62 53.603 563.694 53.603H539.341V85.5026H564.184C576.12 85.5026 582.95 79.1422 582.95 69.8019V69.4991V69.4893Z" fill="white"/>
<path d="M678.058 145.618C644.837 145.618 620.151 120.05 620.151 87.7009V87.3882C620.151 55.3812 644.337 29.1678 679.048 29.1678C700.333 29.1678 713.103 36.2317 723.588 46.5294L707.781 64.6922C699.059 56.7979 690.21 51.9909 678.891 51.9909C659.87 51.9909 646.13 67.7502 646.13 87.0561V87.3687C646.13 106.675 659.527 122.737 678.891 122.737C691.788 122.737 699.706 117.588 708.585 109.537L724.392 125.453C712.76 137.851 699.863 145.56 678.088 145.56L678.058 145.618Z" fill="white"/>
<path d="M789.963 145.618C755.105 145.618 730.105 119.718 730.105 87.7009V87.3882C730.105 55.3812 755.438 29.1678 790.267 29.1678C825.096 29.1678 850.125 55.0685 850.125 87.0854V87.398C850.125 119.405 824.792 145.618 789.963 145.618ZM824.175 87.398C824.175 68.0922 809.975 52.03 789.963 52.03C769.952 52.03 756.095 67.7893 756.095 87.0951V87.4078C756.095 106.714 770.295 122.776 790.306 122.776C810.318 122.776 824.175 107.017 824.175 87.7107V87.398V87.398Z" fill="white"/>
<path d="M985.089 142.736L1039.93 29.1678L1094.77 142.746H1067.27L1039.93 86.2256L1012.69 142.746H985.089V142.736Z" fill="white"/>
<path d="M974.936 31.5811V145.628L891.304 78.0968V142.551H865.285V29.1678L948.917 96.4354V31.5811H974.936Z" fill="white"/>
</g>
<path d="M219.315 146.829C248.033 128.041 257.429 89.7188 240.05 59.5989C231.342 44.4909 217.266 33.6712 200.426 29.1533C184.824 24.961 168.528 26.6753 154.185 33.9276L134.603 0L93.9541 70.4613L0 233.311H269.206L219.315 146.829ZM195.821 46.4134C208.062 49.6764 218.248 57.5428 224.592 68.496C237.062 90.0872 230.585 117.473 210.362 131.304L163.128 49.4361C173.304 44.539 184.781 43.4709 195.821 46.4134ZM134.603 35.7593L238.247 215.426H177.605L104.268 88.3409L134.597 35.7647L134.603 35.7593ZM30.9588 215.426L93.9488 106.258L156.939 215.426H30.9588Z" fill="url(#paint0_linear_1391_11470)"/>
<path d="M306.655 202.335C306.655 196.555 307.958 191.37 310.565 186.78C313.172 182.133 316.713 178.507 321.19 175.9C325.723 173.293 330.738 171.99 336.235 171.99C342.695 171.99 348.333 173.548 353.15 176.665C357.967 179.782 361.48 184.202 363.69 189.925H354.425C352.782 186.355 350.402 183.607 347.285 181.68C344.225 179.753 340.542 178.79 336.235 178.79C332.098 178.79 328.387 179.753 325.1 181.68C321.813 183.607 319.235 186.355 317.365 189.925C315.495 193.438 314.56 197.575 314.56 202.335C314.56 207.038 315.495 211.175 317.365 214.745C319.235 218.258 321.813 220.978 325.1 222.905C328.387 224.832 332.098 225.795 336.235 225.795C340.542 225.795 344.225 224.86 347.285 222.99C350.402 221.063 352.782 218.315 354.425 214.745H363.69C361.48 220.412 357.967 224.803 353.15 227.92C348.333 230.98 342.695 232.51 336.235 232.51C330.738 232.51 325.723 231.235 321.19 228.685C316.713 226.078 313.172 222.48 310.565 217.89C307.958 213.3 306.655 208.115 306.655 202.335ZM436.914 232.595C431.418 232.595 426.403 231.32 421.869 228.77C417.336 226.163 413.738 222.565 411.074 217.975C408.468 213.328 407.164 208.115 407.164 202.335C407.164 196.555 408.468 191.37 411.074 186.78C413.738 182.133 417.336 178.535 421.869 175.985C426.403 173.378 431.418 172.075 436.914 172.075C442.468 172.075 447.511 173.378 452.044 175.985C456.578 178.535 460.148 182.105 462.754 186.695C465.361 191.285 466.664 196.498 466.664 202.335C466.664 208.172 465.361 213.385 462.754 217.975C460.148 222.565 456.578 226.163 452.044 228.77C447.511 231.32 442.468 232.595 436.914 232.595ZM436.914 225.88C441.051 225.88 444.763 224.917 448.049 222.99C451.393 221.063 453.999 218.315 455.869 214.745C457.796 211.175 458.759 207.038 458.759 202.335C458.759 197.575 457.796 193.438 455.869 189.925C453.999 186.355 451.421 183.607 448.134 181.68C444.848 179.753 441.108 178.79 436.914 178.79C432.721 178.79 428.981 179.753 425.694 181.68C422.408 183.607 419.801 186.355 417.874 189.925C416.004 193.438 415.069 197.575 415.069 202.335C415.069 207.038 416.004 211.175 417.874 214.745C419.801 218.315 422.408 221.063 425.694 222.99C429.038 224.917 432.778 225.88 436.914 225.88ZM571.82 173.18V232H564.085V188.14L544.535 232H539.095L519.46 188.055V232H511.725V173.18H520.055L541.815 221.8L563.575 173.18H571.82ZM679.883 173.18V232H672.148V188.14L652.598 232H647.158L627.523 188.055V232H619.788V173.18H628.118L649.878 221.8L671.638 173.18H679.883ZM735.416 172.755V210.24C735.416 215.51 736.691 219.42 739.241 221.97C741.848 224.52 745.446 225.795 750.036 225.795C754.57 225.795 758.111 224.52 760.661 221.97C763.268 219.42 764.571 215.51 764.571 210.24V172.755H772.306V210.155C772.306 215.085 771.315 219.25 769.331 222.65C767.348 225.993 764.656 228.487 761.256 230.13C757.913 231.773 754.145 232.595 749.951 232.595C745.758 232.595 741.961 231.773 738.561 230.13C735.218 228.487 732.555 225.993 730.571 222.65C728.645 219.25 727.681 215.085 727.681 210.155V172.755H735.416ZM866.64 232H858.905L827.795 184.825V232H820.06V172.67H827.795L858.905 219.76V172.67H866.64V232ZM922.41 172.755V232H914.675V172.755H922.41ZM1006.91 172.755V179.045H990.758V232H983.023V179.045H966.788V172.755H1006.91ZM1092.76 172.755L1073.46 209.645V232H1065.73V209.645L1046.35 172.755H1054.93L1069.55 202.76L1084.17 172.755H1092.76Z" fill="white"/>
<defs>
<linearGradient id="paint0_linear_1391_11470" x1="30.363" y1="238.463" x2="230.327" y2="38.6685" gradientUnits="userSpaceOnUse">
<stop stop-color="#FC3519"/>
<stop offset="1" stop-color="#F0D136"/>
</linearGradient>
<clipPath id="clip0_1391_11470">
<rect width="962.614" height="116.656" fill="white" transform="translate(132.155 28.9724)"/>
</clipPath>
</defs>
</svg>
