<?xml version="1.0" encoding="utf-8"?>
<!-- Generator: Adobe Illustrator 27.1.1, SVG Export Plug-In . SVG Version: 6.00 Build 0)  -->
<svg version="1.1" id="Layer_1" xmlns="http://www.w3.org/2000/svg" xmlns:xlink="http://www.w3.org/1999/xlink" x="0px" y="0px"
	 viewBox="0 0 520 163" style="enable-background:new 0 0 520 163;" xml:space="preserve">
<style type="text/css">
	.st0{fill:#FFFFFF;}
</style>
<g>
	<g>
		<g>
			<path class="st0" d="M178.2,65.3c0-4.9-3.4-7.6-8.9-7.6h-8.5V73h8.7C175,73,178.2,69.7,178.2,65.3L178.2,65.3z M169.2,82.8h-8.4
				v15h-11V47.9h20.4c11.9,0,19.1,7.1,19.1,17.2v0.1C189.4,76.8,180.3,82.8,169.2,82.8"/>
			<polygon class="st0" points="195.5,97.7 195.5,47.9 233.2,47.9 233.2,57.7 206.5,57.7 206.5,67.8 230,67.8 230,77.5 206.5,77.5 
				206.5,88 233.6,88 233.6,97.8 195.5,97.8 			"/>
			<path class="st0" d="M272.8,64.9c0-4.7-3.3-7.1-8.6-7.1h-10.9v14.3h11.2c5.3,0,8.4-2.9,8.4-7.1L272.8,64.9L272.8,64.9z
				 M272.6,97.7l-10.7-15.9h-8.6v15.9h-11V47.9h22.9c11.8,0,18.9,6.2,18.9,16.5v0.1c0,8.1-4.4,13.1-10.7,15.5l12.3,17.8L272.6,97.7
				L272.6,97.7z"/>
			<path class="st0" d="M315.5,99.1c-14.9,0-26-11.5-26-26V73c0-14.4,10.9-26.1,26.4-26.1c9.6,0,15.3,3.2,20,7.8l-7.1,8.2
				c-3.9-3.5-7.9-5.7-12.9-5.7c-8.5,0-14.7,7.1-14.7,15.8V73c0,8.7,6,15.9,14.7,15.9c5.8,0,9.4-2.3,13.3-5.9l7.1,7.1
				C331.1,95.6,325.3,99.1,315.5,99.1"/>
			<path class="st0" d="M381.2,73c0-8.7-6.4-15.9-15.3-15.9c-9,0-15.2,7.1-15.2,15.8V73c0,8.7,6.4,15.9,15.4,15.9
				c9,0,15.2-7.1,15.2-15.8L381.2,73L381.2,73z M365.8,99.1c-15.7,0-26.9-11.6-26.9-26V73c0-14.4,11.4-26.1,27-26.1
				c15.6,0,26.9,11.6,26.9,26v0.1C392.8,87.4,381.4,99.1,365.8,99.1"/>
			<polygon class="st0" points="453.4,97.8 478,46.8 502.6,97.8 490.3,97.8 478,72.4 465.8,97.8 			"/>
			<polygon class="st0" points="448.9,47.9 448.9,99.1 411.3,68.8 411.3,97.7 399.6,97.7 399.6,46.8 437.2,77 437.2,47.9 			"/>
			<path class="st0" d="M53.2,46.5l-42.2,73.1h120.9l-22.4-38.8c12.9-8.4,17.1-25.6,9.3-39.2c-3.9-6.8-10.3-11.6-17.8-13.7
				c-7-1.9-14.4-1.1-20.8,2.1l-8.8-15.2L53.2,46.5z M57.8,54.5l13.6-23.6l46.5,80.7H90.7L57.8,54.5z M84.3,37.1
				c4.6-2.2,9.7-2.6,14.7-1.3c5.5,1.5,10,5,12.9,9.9c5.6,9.7,2.6,22-6.4,28.2L84.3,37.1z M53.2,62.6l28.3,49H24.9L53.2,62.6z"/>
			<path class="st0" d="M506.7,51.8h1.4c0.7,0,1.1-0.3,1.1-0.9c0-0.3-0.1-0.5-0.3-0.7c-0.2-0.1-0.4-0.2-0.8-0.2h-1.4V51.8z
				 M509.6,51.9c-0.3,0.3-0.7,0.5-1.2,0.6l1.7,2.4l-1,0l-1.7-2.4h-0.9v2.4h-0.9v-5.7h2.4c0.6,0,1,0.1,1.3,0.4
				c0.3,0.3,0.5,0.7,0.5,1.2C510,51.3,509.9,51.7,509.6,51.9 M510,56c0.7-0.4,1.2-0.9,1.6-1.6c0.3-0.7,0.5-1.5,0.5-2.3
				c0-0.9-0.2-1.6-0.5-2.3c-0.3-0.7-0.9-1.2-1.6-1.6c-0.7-0.4-1.4-0.6-2.3-0.6c-1.3,0-2.4,0.4-3.2,1.3c-0.8,0.9-1.2,1.9-1.2,3.2
				c0,0.9,0.2,1.7,0.5,2.3c0.3,0.7,0.9,1.2,1.6,1.7c0.7,0.4,1.4,0.6,2.3,0.6C508.6,56.6,509.4,56.4,510,56 M510.4,47.5
				c0.8,0.4,1.4,1.1,1.8,1.9c0.4,0.8,0.7,1.7,0.7,2.6c0,1-0.2,1.9-0.7,2.7c-0.4,0.8-1,1.4-1.8,1.9c-0.8,0.4-1.7,0.7-2.6,0.7
				c-1,0-1.9-0.2-2.6-0.7c-0.8-0.4-1.4-1.1-1.8-1.9c-0.4-0.8-0.7-1.7-0.7-2.7s0.2-1.9,0.7-2.6c0.4-0.8,1-1.4,1.8-1.9
				c0.8-0.4,1.7-0.7,2.6-0.7C508.8,46.8,509.6,47.1,510.4,47.5"/>
		</g>
	</g>
	<g>
		<path class="st0" d="M149.8,134.7c0-8.5,6.7-15.4,15-15.4c6.1,0,11.1,3.8,13.4,9.2l-4.8,1.4c-1.6-3.4-4.6-5.7-8.6-5.8
			c-5.8,0-10,4.6-10,10.5c0,5.8,4.2,10.5,10,10.5c4,0,7-2.2,8.6-5.6l4.8,1.3c-2.3,5.4-7.2,9.2-13.4,9.2
			C156.5,150.1,149.8,143.2,149.8,134.7z"/>
		<path class="st0" d="M194,134.8c0-8.5,6.7-15.4,15-15.4c8.2,0,14.9,6.9,15,15.4c0,8.5-6.7,15.4-15,15.4
			C200.6,150.2,194,143.2,194,134.8z M218.9,134.8c0-5.8-4.3-10.6-9.9-10.6c-5.7,0-10,4.8-10,10.6c0,5.8,4.2,10.5,10,10.5
			C214.7,145.3,218.9,140.6,218.9,134.8z"/>
		<path class="st0" d="M239.6,119.7h4.8l11.3,22.9l11.2-22.9h4.9v30.1h-4.8v-20.2l-9.8,20.2h-3l-9.8-20.2v20.2h-4.8V119.7z"/>
		<path class="st0" d="M287.6,119.7h4.8l11.3,22.9l11.2-22.9h4.9v30.1h-4.8v-20.2l-9.8,20.2h-3l-9.8-20.2v20.2h-4.8V119.7z"/>
		<path class="st0" d="M335.6,137.6v-17.9h5v17.9c0,4.9,3.6,7.7,7.3,7.7c3.7,0,7.3-2.8,7.3-7.7v-17.9h5v17.9
			c0,7.6-5.5,12.6-12.3,12.6C341.3,150.2,335.6,145.4,335.6,137.6z"/>
		<path class="st0" d="M375.9,119.7h5l15.3,22.4v-22.4h4.8v30.1h-4.9l-15.3-22.4v22.4h-4.8V119.7z"/>
		<path class="st0" d="M416.7,119.7h5v30.1h-5V119.7z"/>
		<path class="st0" d="M447,124.5h-9.5v-4.8h23.7v4.8H452v25.3h-5V124.5z"/>
		<path class="st0" d="M487.4,140.2l-10.5-20.5h5.4l7.5,14.7l7.5-14.7h5.4L492.4,140v9.8h-5V140.2z"/>
	</g>
</g>
</svg>
