<svg width="183" height="23" viewBox="0 0 183 23" fill="none" xmlns="http://www.w3.org/2000/svg">
<path fill-rule="evenodd" clip-rule="evenodd" d="M104.472 22.2158C98.1526 22.2158 93.4625 17.3362 93.4625 11.1685V11.1079C93.4625 5.00083 98.0617 0 104.661 0C108.707 0 111.14 1.34871 113.132 3.31116L110.124 6.77385C108.465 5.26603 106.783 4.34921 104.631 4.34921C101.017 4.34921 98.4027 7.35728 98.4027 11.0397V11.1003C98.4027 14.7828 100.949 17.8515 104.631 17.8515C107.086 17.8515 108.586 16.8664 110.276 15.3359L113.284 18.3743C111.071 20.7383 108.616 22.2082 104.479 22.2082V22.2234L104.472 22.2158ZM22.337 5.69019C23.9509 8.48611 23.0796 12.0549 20.4049 13.7976L20.3973 13.8052L25.042 21.8444H0L8.74388 6.70551L12.5248 0.158968L14.3433 3.31101C15.6768 2.63665 17.1922 2.47753 18.647 2.86396C20.2155 3.2807 21.5263 4.28844 22.337 5.69019ZM20.8974 6.51608C20.3064 5.50076 19.3593 4.76579 18.2227 4.46271L18.2151 4.47029C17.1922 4.19752 16.1239 4.29602 15.1768 4.75064L19.5714 12.358C21.4581 11.0699 22.0567 8.52399 20.8974 6.51608ZM22.1703 20.1699L12.5248 3.47012L9.70616 8.3573L16.5255 20.1699H22.1703ZM8.7363 10.0242L2.87927 20.1699H14.5933L8.7363 10.0242ZM38.3471 15.4041H41.9386V15.3965C46.7575 15.3965 50.6218 12.8203 50.6218 7.84979V7.78917C50.6218 3.40208 47.5228 0.363696 42.4008 0.363696H33.6266V21.8445H38.3471V15.4041ZM41.9992 4.64471C44.3632 4.64471 45.8331 5.78126 45.8331 7.89525V7.95587C45.8331 9.79708 44.4541 11.2064 42.0901 11.2064H38.3471V4.64471H41.9992ZM53.2664 21.8445V21.8294V0.363696H69.4661V4.56894H57.9566V8.92572H68.0795V13.131H57.9566V17.6393H69.6176V21.8445H53.2664ZM81.7558 14.9722L86.3551 21.8445H86.3626H91.8939L86.643 14.1766C89.3707 13.1613 91.2422 10.9791 91.2422 7.5164V7.45578C91.2422 3.03081 88.2038 0.363696 83.1424 0.363696H73.3226V21.8445H78.0431V14.9722H81.7558ZM82.7333 4.63713C85.0367 4.63713 86.446 5.68276 86.446 7.70582H86.4384V7.76644C86.4384 9.57735 85.1276 10.8048 82.8242 10.8048H78.0355V4.63713H82.7333ZM114.375 11.1685C114.375 17.2756 119.126 22.2158 125.755 22.2158C132.378 22.2158 137.197 17.215 137.197 11.1079V11.0473C137.197 4.94021 132.438 0 125.816 0C119.194 0 114.375 5.00083 114.375 11.1079V11.1685ZM125.755 4.35678C129.567 4.35678 132.264 7.42547 132.264 11.1079V11.1685C132.264 14.851 129.635 17.859 125.824 17.859C122.012 17.859 119.315 14.7903 119.315 11.1079V11.0473C119.315 7.36486 121.944 4.35678 125.755 4.35678ZM160.269 0.211919V21.5336L144.592 9.38011V21.4958H139.712V0.18161L155.389 12.3351V0.211919H160.269ZM172.726 0.212116L162.451 21.5338H167.687L172.718 11.07L177.749 21.5035V21.5338H183L172.726 0.212116Z" fill="white"/>
</svg>
