<?xml version="1.0" encoding="UTF-8"?><svg id="a" xmlns="http://www.w3.org/2000/svg" xmlns:xlink="http://www.w3.org/1999/xlink" viewBox="0 0 345.84 22"><defs><style>.e{fill:url(#d);}.f{fill:url(#c);}.g{fill:none;}.h{fill:#fff;}.i{clip-path:url(#b);}</style><clipPath id="b"><rect class="g" width="181.54" height="22"/></clipPath><linearGradient id="c" x1="2.79" y1="157.57" x2="23.29" y2="178.07" gradientTransform="translate(0 184.15) scale(1 -1)" gradientUnits="userSpaceOnUse"><stop offset="0" stop-color="#fc3519"/><stop offset="1" stop-color="#f0d136"/></linearGradient><linearGradient id="d" x1="5.13" y1="159.94" x2="23.63" y2="178.43" gradientTransform="translate(0 184.15) scale(1 -1)" gradientUnits="userSpaceOnUse"><stop offset="0" stop-color="#fc3519"/><stop offset="1" stop-color="#f0d136"/></linearGradient></defs><g class="i"><g><path class="f" d="M20.3,13.47c2.66-1.74,3.53-5.28,1.92-8.07-.81-1.4-2.11-2.4-3.67-2.82-1.44-.39-2.95-.23-4.28,.44L12.46-.11l-3.76,6.52L0,21.47H24.92l-4.62-8Zm-2.18-9.29c1.13,.3,2.08,1.03,2.66,2.04,1.15,2,.55,4.53-1.32,5.81l-4.37-7.57c.94-.45,2-.55,3.03-.28Zm-5.67-.99l9.6,16.62h-5.61l-6.79-11.76,2.81-4.86h0ZM2.86,19.81l5.83-10.1,5.83,10.1H2.86Z"/><path class="e" d="M20.32,13.43c2.66-1.74,3.53-5.28,1.92-8.07-.81-1.4-2.11-2.4-3.67-2.82-1.44-.39-2.95-.23-4.28,.44L12.48-.15l-3.76,6.52L.02,21.43H24.94l-4.62-8Zm-2.17-9.29c1.13,.3,2.08,1.03,2.66,2.04,1.15,2,.55,4.53-1.32,5.81l-4.37-7.57c.94-.45,2-.55,3.03-.28Zm-5.67-.99l9.6,16.62h-5.61l-6.79-11.76,2.81-4.86h0ZM2.88,19.77l5.83-10.1,5.83,10.1H2.88Z"/><path class="h" d="M41.46,15.15h-3.51v6.28h-4.62V.48h8.59c5.01,0,8.05,2.96,8.05,7.24v.06c0,4.85-3.78,7.36-8.5,7.36h0Zm3.81-7.33c0-2.07-1.44-3.17-3.75-3.17h-3.57v6.4h3.66c2.31,0,3.66-1.38,3.66-3.17v-.06h0Z"/><path class="h" d="M52.54,21.44V.48h15.85V4.59h-11.26v4.25h9.91v4.1h-9.91v4.4h11.41v4.1h-16Z"/><path class="h" d="M84.92,21.44l-4.5-6.7h-3.63v6.7h-4.62V.48h9.61c4.96,0,7.93,2.61,7.93,6.92v.06c0,3.38-1.83,5.51-4.5,6.5l5.13,7.48h-5.41Zm.09-13.8c0-1.97-1.38-3-3.63-3h-4.59v6.02h4.69c2.25,0,3.54-1.2,3.54-2.96v-.06h0Z"/><path class="h" d="M102.95,22c-6.27,0-10.92-4.82-10.92-10.92v-.06C92.03,4.98,96.59,.04,103.14,.04c4.01,0,6.42,1.33,8.4,3.27l-2.98,3.43c-1.64-1.49-3.31-2.4-5.45-2.4-3.59,0-6.18,2.97-6.18,6.61v.06c0,3.64,2.53,6.67,6.18,6.67,2.43,0,3.93-.97,5.6-2.49l2.98,3c-2.19,2.34-4.63,3.79-8.73,3.79h0Z"/><path class="h" d="M124.05,22c-6.57,0-11.29-4.88-11.29-10.92v-.06C112.77,4.98,117.54,.04,124.11,.04s11.29,4.88,11.29,10.92v.06c0,6.04-4.78,10.98-11.35,10.98Zm6.45-10.98c0-3.64-2.68-6.67-6.45-6.67s-6.39,2.97-6.39,6.61v.06c0,3.64,2.68,6.67,6.45,6.67s6.39-2.97,6.39-6.61v-.06Z"/><path class="h" d="M160.85,21.45L171.2,.04l10.34,21.42h-5.19l-5.16-10.66-5.14,10.66h-5.21Z"/><path class="h" d="M158.94,.49V22l-15.77-12.74v12.16h-4.91V.04l15.77,12.69V.49h4.91Z"/></g></g><g><path class="h" d="M209.73,6.66c.71-1.28,1.67-2.27,2.89-2.99s2.59-1.07,4.09-1.07c1.83,0,3.41,.44,4.71,1.31,1.31,.87,2.26,2.1,2.86,3.68h-1.93c-.47-1.11-1.19-1.98-2.15-2.61-.96-.63-2.13-.94-3.49-.94-1.21,0-2.29,.28-3.26,.85s-1.72,1.38-2.27,2.43-.82,2.29-.82,3.68,.27,2.62,.82,3.67,1.31,1.86,2.27,2.42c.96,.56,2.05,.85,3.26,.85,1.36,0,2.53-.31,3.49-.93s1.68-1.48,2.15-2.58h1.93c-.6,1.57-1.55,2.78-2.87,3.64-1.32,.86-2.88,1.29-4.7,1.29-1.5,0-2.87-.36-4.09-1.07-1.22-.71-2.19-1.7-2.89-2.97-.71-1.27-1.06-2.71-1.06-4.33s.35-3.06,1.06-4.34Z"/><path class="h" d="M230.8,18.32c-1.24-.71-2.21-1.71-2.93-2.99-.71-1.28-1.07-2.72-1.07-4.34s.36-3.06,1.07-4.34c.71-1.28,1.69-2.27,2.93-2.99s2.62-1.07,4.14-1.07,2.92,.36,4.16,1.07,2.21,1.71,2.92,2.99c.71,1.28,1.06,2.72,1.06,4.34s-.35,3.06-1.06,4.34c-.71,1.28-1.68,2.27-2.92,2.99-1.24,.71-2.63,1.07-4.16,1.07s-2.9-.36-4.14-1.07Zm7.43-1.21c.97-.56,1.74-1.38,2.3-2.43s.85-2.28,.85-3.68-.28-2.62-.85-3.67c-.56-1.05-1.33-1.86-2.3-2.42-.97-.56-2.07-.85-3.29-.85s-2.32,.28-3.29,.85-1.74,1.37-2.3,2.42c-.56,1.05-.85,2.27-.85,3.67s.28,2.62,.85,3.68c.56,1.06,1.33,1.87,2.3,2.43,.97,.56,2.07,.85,3.29,.85s2.32-.28,3.29-.85Z"/><path class="h" d="M262.15,3V19.23h-1.65V6.27l-5.78,12.96h-1.2l-5.79-12.91v12.91h-1.65V3h1.74l6.28,14.06,6.28-14.06h1.76Z"/><path class="h" d="M281.95,3V19.23h-1.65V6.27l-5.78,12.96h-1.2l-5.79-12.91v12.91h-1.65V3h1.74l6.28,14.06,6.28-14.06h1.76Z"/><path class="h" d="M287.26,2.79V13.14c0,1.63,.39,2.84,1.16,3.62,.78,.78,1.84,1.18,3.19,1.18s2.4-.39,3.16-1.16c.76-.78,1.14-1.99,1.14-3.63V2.79h1.65V13.12c0,2.08-.55,3.65-1.66,4.7-1.11,1.05-2.54,1.58-4.32,1.58s-3.21-.53-4.31-1.58c-1.11-1.05-1.66-2.62-1.66-4.7V2.79h1.65Z"/><path class="h" d="M313.62,19.23h-1.65l-9.1-13.83v13.83h-1.65V2.79h1.65l9.1,13.8V2.79h1.65V19.23Z"/><path class="h" d="M319.01,2.79V19.23h-1.65V2.79h1.65Z"/><path class="h" d="M332.37,2.79v1.36h-4.56v15.07h-1.65V4.16h-4.59v-1.36h10.79Z"/><path class="h" d="M345.84,2.79l-5.27,10.04v6.4h-1.65v-6.4l-5.31-10.04h1.86l4.28,8.54,4.26-8.54h1.83Z"/></g></svg>