<?xml version="1.0" encoding="utf-8"?>
<!-- Generator: Adobe Illustrator 23.0.4, SVG Export Plug-In . SVG Version: 6.00 Build 0)  -->
<svg version="1.1" baseProfile="tiny" id="Capa_1" xmlns="http://www.w3.org/2000/svg" xmlns:xlink="http://www.w3.org/1999/xlink"
	 x="0px" y="0px" viewBox="0 0 650 210" xml:space="preserve">
<g>
	<g>
		<circle fill="#FFFFFF" cx="100.91" cy="104.98" r="68.91"/>
		<g>
			<path fill="#BF181A" d="M100.91,36.12C62.85,36.12,32,66.97,32,105.03c0,23.47,11.74,44.18,29.66,56.63v-56.63
				c0-21.68,17.57-39.25,39.25-39.25s39.25,17.57,39.25,39.25c0,21.68-17.57,39.25-39.25,39.25c-8.76,0-16.82-2.91-23.35-7.76v33.35
				c7.29,2.63,15.15,4.07,23.35,4.07c38.06,0,68.91-30.85,68.91-68.91C169.82,66.97,138.96,36.12,100.91,36.12z"/>
			<circle fill="#EFC700" cx="100.91" cy="105.03" r="22.96"/>
			<path fill="#E6B600" d="M100.91,84.32c12.3,0,22.31,9.68,22.9,21.83c0.02-0.38,0.06-0.75,0.06-1.13
				c0-12.68-10.28-22.96-22.96-22.96s-22.96,10.28-22.96,22.96c0,0.38,0.04,0.75,0.06,1.13C78.6,94,88.61,84.32,100.91,84.32z"/>
		</g>
	</g>
	<path fill="#3C3C3C" d="M213.3,128.11V81.98h19.29c10.51,0,17.3,6.16,17.3,15.7c0,9.39-7.11,15.95-17.3,15.95h-9.02v14.47H213.3z
		 M232.01,104.98c4.84,0,7.61-2.66,7.61-7.29c0-4.54-2.7-7.04-7.61-7.04h-8.45v14.33H232.01z"/>
	<polygon fill="#3C3C3C" points="272.12,128.11 272.12,81.98 304.8,81.98 304.8,90.71 282.39,90.71 282.39,100.36 302.88,100.36 
		302.88,109.15 282.39,109.15 282.39,119.38 304.87,119.38 304.87,128.11 	"/>
	<path fill="#3C3C3C" d="M354.71,128.11l-8.2-14.35h-8.39v14.35h-10.26V81.98h20.89c10.24,0,16.85,6.24,16.85,15.89
		c0,6.29-3.19,11.52-8.56,14.12l9.56,16.11H354.71z M347.66,105.23c4.81,0,7.68-2.77,7.68-7.42c0-4.59-2.8-7.23-7.68-7.23h-9.53
		v14.65H347.66z"/>
	<path fill="#3C3C3C" d="M470.47,129.01c-12.53,0-20.63-8.12-20.63-20.69v-6.53c0-12.57,8.1-20.69,20.63-20.69
		c12.72,0,20.63,7.93,20.63,20.69v6.53C491.1,121.08,483.19,129.01,470.47,129.01z M470.47,89.81c-6.59,0-10.37,4.2-10.37,11.52
		v7.43c0,7.32,3.78,11.52,10.37,11.52c6.59,0,10.36-4.2,10.36-11.52v-7.43C480.83,94.01,477.06,89.81,470.47,89.81z"/>
	<polygon fill="#3C3C3C" points="543.01,128.11 524.48,99.79 524.48,128.11 514.41,128.11 514.41,81.98 523.93,81.98 542.46,110.3 
		542.46,81.98 552.53,81.98 552.53,128.11 	"/>
	<path fill="#3C3C3C" d="M607.7,128.11l-3.01-9.41h-16.47l-3.01,9.41h-10.29l16.54-46.13h10.01L618,128.11H607.7z M601.98,110.29
		l-5.52-17.45l-5.58,17.45H601.98z"/>
	<g>
		<path fill="#3C3C3C" d="M418.62,111.85c-0.77,5.33-4.37,8.5-9.73,8.5c-8.74,0-10.05-7.3-10.05-11.65v-7.3
			c0-4.35,1.31-11.65,10.05-11.65c5.35,0,8.95,3.15,9.73,8.45l9.52-1.42c-1.28-9.33-8.95-15.7-19.24-15.7
			c-12.68,0-20.24,7.76-20.24,20.76v6.4c0,13,7.57,20.76,20.24,20.76c10.3,0,17.98-6.39,19.25-15.74L418.62,111.85z"/>
	</g>
</g>
</svg>
