<?xml version="1.0" encoding="UTF-8"?>
<svg id="Layer_12" data-name="Layer 12" xmlns="http://www.w3.org/2000/svg" viewBox="0 0 1206.6 691.96">
  <defs>
    <style>
      .cls-1 {
        fill: #fff;
      }
    </style>
  </defs>
  <g id="Layer_1" data-name="Layer 1">
    <g>
      <g>
        <g>
          <path class="cls-1" d="M794.71,331.14c-3.11,3.01-7.86,4.51-14.24,4.51h-10.51v22.83h-7.14v-54.68h17.65c6.17,0,10.86,1.49,14.08,4.47,3.22,2.98,4.82,6.82,4.82,11.53s-1.56,8.33-4.67,11.33ZM789.26,327.18c1.88-1.73,2.82-4.18,2.82-7.37,0-6.75-3.87-10.12-11.61-10.12h-10.51v20.08h10.51c3.97,0,6.9-.86,8.79-2.59Z"/>
          <path class="cls-1" d="M846.13,339.66h-34.36c.26,4.24,1.71,7.54,4.35,9.92,2.64,2.38,5.84,3.57,9.61,3.57,3.09,0,5.66-.72,7.73-2.16,2.07-1.44,3.52-3.36,4.35-5.77h7.69c-1.15,4.13-3.45,7.49-6.9,10.08-3.45,2.59-7.74,3.88-12.86,3.88-4.08,0-7.73-.91-10.94-2.74-3.22-1.83-5.74-4.43-7.57-7.81-1.83-3.37-2.75-7.28-2.75-11.73s.89-8.34,2.67-11.69c1.78-3.35,4.28-5.92,7.49-7.73,3.22-1.8,6.92-2.71,11.1-2.71s7.69.89,10.83,2.67c3.14,1.78,5.56,4.23,7.26,7.34,1.7,3.11,2.55,6.63,2.55,10.55,0,1.36-.08,2.8-.24,4.32ZM837.19,326.83c-1.2-1.96-2.84-3.45-4.9-4.47-2.07-1.02-4.35-1.53-6.86-1.53-3.61,0-6.68,1.15-9.22,3.45-2.54,2.3-3.99,5.49-4.35,9.57h27.14c0-2.72-.6-5.06-1.8-7.02Z"/>
          <path class="cls-1" d="M868.21,316.75c2.33-1.36,5.16-2.04,8.51-2.04v7.37h-1.88c-8,0-12,4.34-12,13.02v23.38h-7.14v-42.99h7.14v6.98c1.25-2.46,3.05-4.37,5.37-5.73Z"/>
          <path class="cls-1" d="M883.62,325.26c1.78-3.32,4.25-5.9,7.41-7.73,3.16-1.83,6.79-2.75,10.86-2.75,5.28,0,9.64,1.28,13.06,3.84,3.42,2.56,5.69,6.12,6.79,10.67h-7.69c-.73-2.61-2.16-4.68-4.28-6.2-2.12-1.52-4.75-2.28-7.88-2.28-4.08,0-7.37,1.4-9.88,4.2-2.51,2.8-3.77,6.76-3.77,11.88s1.26,9.18,3.77,12c2.51,2.82,5.81,4.24,9.88,4.24,3.14,0,5.75-.73,7.84-2.2,2.09-1.46,3.53-3.55,4.31-6.28h7.69c-1.15,4.39-3.45,7.91-6.9,10.55-3.45,2.64-7.77,3.96-12.94,3.96-4.08,0-7.7-.91-10.86-2.74-3.17-1.83-5.64-4.42-7.41-7.77-1.78-3.35-2.67-7.27-2.67-11.77s.89-8.33,2.67-11.65Z"/>
          <path class="cls-1" d="M938.58,356.44c-3.27-1.83-5.83-4.43-7.69-7.81-1.86-3.37-2.78-7.28-2.78-11.73s.95-8.27,2.86-11.65c1.91-3.37,4.51-5.96,7.81-7.77,3.29-1.8,6.98-2.71,11.06-2.71s7.77.9,11.06,2.71c3.29,1.8,5.9,4.38,7.81,7.73,1.91,3.35,2.86,7.24,2.86,11.69s-.98,8.35-2.94,11.73c-1.96,3.37-4.62,5.98-7.96,7.81-3.35,1.83-7.06,2.74-11.14,2.74s-7.68-.91-10.94-2.74ZM956.74,351.11c2.25-1.2,4.07-3.01,5.45-5.41,1.39-2.41,2.08-5.33,2.08-8.79s-.68-6.38-2.04-8.79c-1.36-2.41-3.14-4.2-5.33-5.37-2.2-1.17-4.58-1.77-7.14-1.77s-5.01.59-7.18,1.77c-2.17,1.18-3.91,2.97-5.22,5.37-1.31,2.41-1.96,5.33-1.96,8.79s.64,6.46,1.92,8.86c1.28,2.41,2.99,4.2,5.14,5.37,2.14,1.18,4.5,1.77,7.06,1.77s4.97-.6,7.22-1.8Z"/>
          <path class="cls-1" d="M1014.4,319.45c3.24,3.17,4.86,7.73,4.86,13.69v25.34h-7.06v-24.32c0-4.29-1.07-7.57-3.22-9.85-2.14-2.27-5.07-3.41-8.79-3.41s-6.76,1.17-8.98,3.53c-2.22,2.35-3.33,5.78-3.33,10.27v23.77h-7.14v-42.99h7.14v6.12c1.41-2.2,3.33-3.9,5.77-5.1,2.43-1.2,5.11-1.8,8.04-1.8,5.23,0,9.47,1.58,12.71,4.74Z"/>
          <path class="cls-1" d="M1030.71,325.26c1.78-3.32,4.22-5.9,7.33-7.73,3.11-1.83,6.58-2.75,10.39-2.75s7.03.81,9.81,2.43c2.77,1.62,4.84,3.66,6.2,6.12v-7.85h7.22v42.99h-7.22v-8c-1.41,2.51-3.52,4.59-6.31,6.24-2.8,1.65-6.05,2.47-9.77,2.47s-7.27-.94-10.36-2.82c-3.09-1.88-5.52-4.52-7.3-7.92-1.78-3.4-2.67-7.27-2.67-11.61s.89-8.25,2.67-11.57ZM1062.48,328.44c-1.31-2.4-3.07-4.25-5.3-5.53-2.22-1.28-4.67-1.92-7.33-1.92s-5.1.63-7.3,1.88c-2.2,1.25-3.95,3.09-5.26,5.49-1.31,2.41-1.96,5.23-1.96,8.47s.65,6.16,1.96,8.59c1.31,2.43,3.06,4.29,5.26,5.57,2.2,1.28,4.63,1.92,7.3,1.92s5.11-.64,7.33-1.92c2.22-1.28,3.99-3.14,5.3-5.57,1.31-2.43,1.96-5.27,1.96-8.51s-.65-6.06-1.96-8.47Z"/>
          <path class="cls-1" d="M1122.18,321.38h-9.02v37.11h-7.14v-37.11h-5.57v-5.88h5.57v-3.06c0-4.81,1.24-8.33,3.73-10.55,2.48-2.22,6.47-3.33,11.96-3.33v5.96c-3.14,0-5.35.62-6.63,1.84-1.28,1.23-1.92,3.26-1.92,6.08v3.06h9.02v5.88Z"/>
          <path class="cls-1" d="M1136.42,356.44c-3.27-1.83-5.83-4.43-7.69-7.81-1.86-3.37-2.78-7.28-2.78-11.73s.95-8.27,2.86-11.65c1.91-3.37,4.51-5.96,7.81-7.77,3.29-1.8,6.98-2.71,11.06-2.71s7.77.9,11.06,2.71c3.29,1.8,5.9,4.38,7.81,7.73,1.91,3.35,2.86,7.24,2.86,11.69s-.98,8.35-2.94,11.73-4.62,5.98-7.96,7.81c-3.35,1.83-7.06,2.74-11.14,2.74s-7.68-.91-10.94-2.74ZM1154.58,351.11c2.25-1.2,4.07-3.01,5.45-5.41,1.39-2.41,2.08-5.33,2.08-8.79s-.68-6.38-2.04-8.79c-1.36-2.41-3.14-4.2-5.33-5.37-2.2-1.17-4.58-1.77-7.14-1.77s-5.01.59-7.18,1.77c-2.17,1.18-3.91,2.97-5.22,5.37-1.31,2.41-1.96,5.33-1.96,8.79s.64,6.46,1.92,8.86c1.28,2.41,2.99,4.2,5.14,5.37,2.14,1.18,4.5,1.77,7.06,1.77s4.97-.6,7.22-1.8Z"/>
          <path class="cls-1" d="M1191.1,316.75c2.33-1.36,5.16-2.04,8.51-2.04v7.37h-1.88c-8,0-12,4.34-12,13.02v23.38h-7.14v-42.99h7.14v6.98c1.25-2.46,3.05-4.37,5.37-5.73Z"/>
        </g>
        <g>
          <path class="cls-1" d="M834.89,398.37v62.7h-15.27v-37.6l-14.02,37.6h-12.32l-14.11-37.69v37.69h-15.27v-62.7h18.04l17.59,43.4,17.42-43.4h17.95Z"/>
          <path class="cls-1" d="M856.01,458.65c-3.9-2.08-6.97-5.06-9.2-8.93-2.23-3.87-3.35-8.39-3.35-13.57s1.13-9.63,3.39-13.53c2.26-3.9,5.36-6.89,9.29-8.98,3.93-2.08,8.33-3.13,13.22-3.13s9.29,1.04,13.22,3.13c3.93,2.09,7.02,5.08,9.29,8.98,2.26,3.9,3.39,8.41,3.39,13.53s-1.15,9.63-3.44,13.53c-2.29,3.9-5.42,6.89-9.38,8.97-3.96,2.09-8.38,3.13-13.26,3.13s-9.27-1.04-13.17-3.13ZM876.64,445.34c2.05-2.14,3.08-5.21,3.08-9.2s-1-7.06-2.99-9.2c-2-2.14-4.45-3.21-7.37-3.21s-5.45,1.06-7.41,3.17c-1.96,2.11-2.95,5.19-2.95,9.24s.97,7.05,2.9,9.2c1.93,2.14,4.36,3.22,7.28,3.22s5.4-1.07,7.46-3.22Z"/>
          <path class="cls-1" d="M947.55,416.36c3.48,3.78,5.22,8.98,5.22,15.59v29.11h-15.18v-27.06c0-3.33-.86-5.93-2.59-7.77-1.73-1.84-4.05-2.77-6.97-2.77s-5.24.93-6.97,2.77c-1.73,1.84-2.59,4.44-2.59,7.77v27.06h-15.27v-49.83h15.27v6.61c1.55-2.2,3.63-3.94,6.25-5.22,2.62-1.28,5.57-1.92,8.84-1.92,5.83,0,10.49,1.89,13.98,5.67Z"/>
          <path class="cls-1" d="M991.58,412.66c2.65,1.43,4.69,3.3,6.12,5.63v-7.06h15.27v49.74c0,4.59-.91,8.74-2.72,12.46-1.82,3.72-4.59,6.68-8.31,8.89-3.72,2.2-8.35,3.3-13.89,3.3-7.38,0-13.37-1.74-17.95-5.22-4.59-3.48-7.2-8.2-7.86-14.16h15.09c.48,1.91,1.61,3.41,3.39,4.51,1.79,1.1,3.99,1.65,6.61,1.65,3.16,0,5.67-.91,7.55-2.72,1.88-1.82,2.81-4.72,2.81-8.71v-7.06c-1.49,2.32-3.54,4.21-6.16,5.67-2.62,1.46-5.69,2.19-9.2,2.19-4.11,0-7.83-1.06-11.16-3.17-3.34-2.11-5.97-5.12-7.9-9.02-1.94-3.9-2.9-8.41-2.9-13.53s.97-9.61,2.9-13.49c1.93-3.87,4.57-6.85,7.9-8.93,3.33-2.08,7.06-3.13,11.16-3.13,3.51,0,6.59.71,9.24,2.14ZM994.53,427.13c-2.11-2.2-4.69-3.3-7.73-3.3s-5.61,1.09-7.73,3.26c-2.11,2.17-3.17,5.17-3.17,8.98s1.06,6.83,3.17,9.06c2.11,2.23,4.69,3.35,7.73,3.35s5.61-1.1,7.73-3.3c2.11-2.2,3.17-5.21,3.17-9.02s-1.06-6.82-3.17-9.02Z"/>
          <path class="cls-1" d="M1033.55,458.65c-3.9-2.08-6.97-5.06-9.2-8.93-2.23-3.87-3.35-8.39-3.35-13.57s1.13-9.63,3.39-13.53c2.26-3.9,5.36-6.89,9.29-8.98,3.93-2.08,8.33-3.13,13.22-3.13s9.29,1.04,13.22,3.13c3.93,2.09,7.02,5.08,9.29,8.98,2.26,3.9,3.39,8.41,3.39,13.53s-1.15,9.63-3.44,13.53c-2.29,3.9-5.42,6.89-9.38,8.97-3.96,2.09-8.38,3.13-13.26,3.13s-9.27-1.04-13.17-3.13ZM1054.18,445.34c2.05-2.14,3.08-5.21,3.08-9.2s-1-7.06-2.99-9.2c-2-2.14-4.45-3.21-7.37-3.21s-5.45,1.06-7.41,3.17-2.95,5.19-2.95,9.24.97,7.05,2.9,9.2c1.93,2.14,4.36,3.22,7.28,3.22s5.4-1.07,7.46-3.22Z"/>
          <path class="cls-1" d="M1122.1,402.3c4.94,2.62,8.77,6.3,11.48,11.03,2.71,4.73,4.06,10.2,4.06,16.39s-1.36,11.58-4.06,16.34c-2.71,4.76-6.55,8.45-11.52,11.07-4.97,2.62-10.73,3.93-17.28,3.93h-23.49v-62.7h23.49c6.61,0,12.38,1.31,17.33,3.93ZM1117.28,443.11c3.22-3.15,4.82-7.62,4.82-13.4s-1.61-10.27-4.82-13.48c-3.21-3.21-7.71-4.82-13.49-4.82h-7.23v36.44h7.23c5.77,0,10.27-1.58,13.49-4.73Z"/>
          <path class="cls-1" d="M1193.37,434.32c2.2,2.83,3.3,6.06,3.3,9.69,0,5.24-1.83,9.39-5.49,12.46-3.66,3.07-8.77,4.6-15.32,4.6h-29.2v-62.7h28.22c6.37,0,11.36,1.46,14.96,4.38,3.6,2.92,5.4,6.88,5.4,11.88,0,3.69-.97,6.76-2.9,9.2-1.94,2.44-4.51,4.14-7.72,5.09,3.63.78,6.55,2.58,8.75,5.4ZM1161.93,423.73h10c2.5,0,4.42-.55,5.76-1.65,1.34-1.1,2.01-2.72,2.01-4.87s-.67-3.78-2.01-4.91c-1.34-1.13-3.26-1.7-5.76-1.7h-10v13.13ZM1179.12,447c1.4-1.16,2.1-2.84,2.1-5.04s-.73-3.93-2.19-5.18c-1.46-1.25-3.47-1.87-6.03-1.87h-11.07v13.84h11.25c2.56,0,4.54-.58,5.94-1.74Z"/>
        </g>
      </g>
      <path class="cls-1" d="M710.85,650.76H6.99L358.92,41.2l351.93,609.56ZM26.23,639.65h665.38L358.92,63.41,26.23,639.65Z"/>
      <g>
        <polygon class="cls-1" points="326.56 445.82 359.18 502.31 391.79 445.82 326.56 445.82"/>
        <polygon class="cls-1" points="318.46 433.8 343.45 433.8 294.41 348.87 193.6 523.14 218.58 523.14 294.41 392.15 318.46 433.8"/>
        <polygon class="cls-1" points="412.82 336.2 359.86 244.38 306.77 335.98 359.73 427.81 412.82 336.2"/>
        <polygon class="cls-1" points="327.3 573.27 316.27 592.38 353.18 592.38 353.18 517.45 296.44 419.16 236.38 523.19 337.4 523.19 337.4 573.27 327.3 573.27"/>
        <polygon class="cls-1" points="482.65 523.19 422.59 419.16 366.41 516.46 366.41 592.38 402.75 592.38 391.73 573.27 381.63 573.27 381.63 523.19 482.65 523.19"/>
        <polygon class="cls-1" points="423.94 348.87 374.9 433.8 399.89 433.8 423.94 392.15 499.77 523.14 524.76 523.14 423.94 348.87"/>
      </g>
    </g>
  </g>
</svg>