<?xml version="1.0" encoding="UTF-8"?>
<svg id="Layer_12" data-name="Layer 12" xmlns="http://www.w3.org/2000/svg" viewBox="0 0 1210.34 691.96">
  <defs>
    <style>
      .cls-1 {
        fill: #fff;
      }
    </style>
  </defs>
  <g id="Layer_1" data-name="Layer 1">
    <g>
      <g>
        <path class="cls-1" d="M796.58,331.14c-3.11,3.01-7.86,4.51-14.24,4.51h-10.51v22.83h-7.14v-54.68h17.65c6.17,0,10.86,1.49,14.08,4.47,3.22,2.98,4.82,6.82,4.82,11.53s-1.56,8.33-4.67,11.34ZM791.13,327.18c1.88-1.73,2.82-4.18,2.82-7.38,0-6.74-3.87-10.12-11.61-10.12h-10.51v20.08h10.51c3.97,0,6.9-.86,8.79-2.59Z"/>
        <path class="cls-1" d="M848,339.65h-34.36c.26,4.24,1.71,7.54,4.35,9.92,2.64,2.38,5.84,3.57,9.61,3.57,3.09,0,5.66-.72,7.73-2.16,2.07-1.44,3.52-3.36,4.35-5.77h7.69c-1.15,4.13-3.45,7.49-6.9,10.08-3.45,2.59-7.74,3.88-12.87,3.88-4.08,0-7.73-.92-10.94-2.75-3.22-1.83-5.74-4.43-7.57-7.8-1.83-3.37-2.75-7.28-2.75-11.73s.89-8.34,2.67-11.69c1.78-3.35,4.28-5.92,7.49-7.73,3.22-1.8,6.92-2.71,11.1-2.71s7.69.89,10.83,2.67c3.14,1.78,5.56,4.22,7.26,7.33,1.7,3.11,2.55,6.63,2.55,10.55,0,1.36-.08,2.8-.24,4.31ZM839.06,326.83c-1.2-1.96-2.84-3.45-4.9-4.47-2.07-1.02-4.35-1.53-6.86-1.53-3.61,0-6.68,1.15-9.22,3.45-2.54,2.3-3.99,5.49-4.35,9.57h27.14c0-2.72-.6-5.06-1.8-7.02Z"/>
        <path class="cls-1" d="M870.08,316.75c2.33-1.36,5.16-2.04,8.51-2.04v7.38h-1.88c-8,0-12,4.34-12,13.02v23.38h-7.14v-42.99h7.14v6.98c1.26-2.46,3.05-4.37,5.37-5.73Z"/>
        <path class="cls-1" d="M885.5,325.26c1.78-3.32,4.25-5.9,7.41-7.73,3.16-1.83,6.79-2.75,10.86-2.75,5.28,0,9.64,1.28,13.06,3.84,3.42,2.56,5.69,6.12,6.79,10.67h-7.69c-.73-2.61-2.16-4.68-4.28-6.2-2.12-1.52-4.75-2.27-7.88-2.27-4.08,0-7.37,1.4-9.88,4.2-2.51,2.8-3.77,6.76-3.77,11.89s1.26,9.18,3.77,12c2.51,2.83,5.8,4.24,9.88,4.24,3.14,0,5.75-.73,7.84-2.2,2.09-1.46,3.53-3.56,4.31-6.28h7.69c-1.15,4.39-3.45,7.91-6.9,10.55-3.45,2.64-7.77,3.96-12.94,3.96-4.08,0-7.7-.92-10.86-2.75-3.16-1.83-5.64-4.42-7.41-7.77-1.78-3.35-2.67-7.27-2.67-11.77s.89-8.33,2.67-11.65Z"/>
        <path class="cls-1" d="M940.45,356.44c-3.27-1.83-5.83-4.43-7.69-7.8-1.86-3.37-2.78-7.28-2.78-11.73s.95-8.28,2.86-11.65c1.91-3.37,4.51-5.96,7.81-7.77,3.29-1.8,6.98-2.71,11.06-2.71s7.77.9,11.06,2.71c3.29,1.8,5.9,4.38,7.81,7.73,1.91,3.35,2.86,7.24,2.86,11.69s-.98,8.35-2.94,11.73c-1.96,3.37-4.62,5.98-7.96,7.8-3.35,1.83-7.06,2.75-11.14,2.75s-7.68-.92-10.94-2.75ZM958.61,351.11c2.25-1.2,4.07-3.01,5.45-5.41,1.38-2.41,2.08-5.33,2.08-8.79s-.68-6.38-2.04-8.79c-1.36-2.4-3.14-4.2-5.33-5.37-2.2-1.18-4.58-1.77-7.14-1.77s-5.01.59-7.18,1.77c-2.17,1.18-3.91,2.97-5.22,5.37-1.31,2.41-1.96,5.33-1.96,8.79s.64,6.46,1.92,8.86c1.28,2.41,2.99,4.2,5.14,5.37,2.14,1.18,4.5,1.77,7.06,1.77s4.97-.6,7.22-1.8Z"/>
        <path class="cls-1" d="M1016.27,319.45c3.24,3.17,4.86,7.73,4.86,13.69v25.34h-7.06v-24.32c0-4.29-1.07-7.57-3.22-9.84-2.15-2.28-5.07-3.41-8.79-3.41s-6.76,1.18-8.98,3.53c-2.22,2.35-3.33,5.78-3.33,10.28v23.77h-7.14v-42.99h7.14v6.12c1.41-2.2,3.33-3.9,5.77-5.1,2.43-1.2,5.11-1.8,8.04-1.8,5.23,0,9.47,1.58,12.71,4.75Z"/>
        <path class="cls-1" d="M1032.59,325.26c1.78-3.32,4.22-5.9,7.33-7.73,3.11-1.83,6.58-2.75,10.39-2.75s7.03.81,9.81,2.43c2.77,1.62,4.84,3.66,6.2,6.12v-7.84h7.22v42.99h-7.22v-8c-1.41,2.51-3.52,4.59-6.31,6.24-2.8,1.65-6.05,2.47-9.77,2.47s-7.27-.94-10.36-2.83c-3.09-1.88-5.52-4.52-7.3-7.92-1.78-3.4-2.67-7.27-2.67-11.61s.89-8.25,2.67-11.57ZM1064.36,328.43c-1.31-2.41-3.07-4.25-5.3-5.53-2.22-1.28-4.67-1.92-7.33-1.92s-5.1.63-7.3,1.88c-2.2,1.26-3.95,3.09-5.26,5.49-1.31,2.41-1.96,5.23-1.96,8.47s.65,6.16,1.96,8.59c1.31,2.43,3.06,4.29,5.26,5.57,2.2,1.28,4.63,1.92,7.3,1.92s5.11-.64,7.33-1.92c2.22-1.28,3.99-3.14,5.3-5.57,1.31-2.43,1.96-5.27,1.96-8.51s-.65-6.07-1.96-8.47Z"/>
        <path class="cls-1" d="M1124.05,321.37h-9.02v37.11h-7.14v-37.11h-5.57v-5.88h5.57v-3.06c0-4.81,1.24-8.33,3.73-10.55,2.48-2.22,6.47-3.33,11.96-3.33v5.96c-3.14,0-5.35.62-6.63,1.84-1.28,1.23-1.92,3.25-1.92,6.08v3.06h9.02v5.88Z"/>
        <path class="cls-1" d="M1138.29,356.44c-3.27-1.83-5.83-4.43-7.69-7.8-1.86-3.37-2.78-7.28-2.78-11.73s.95-8.28,2.86-11.65c1.91-3.37,4.51-5.96,7.81-7.77,3.29-1.8,6.98-2.71,11.06-2.71s7.77.9,11.06,2.71c3.29,1.8,5.9,4.38,7.81,7.73,1.91,3.35,2.86,7.24,2.86,11.69s-.98,8.35-2.94,11.73-4.62,5.98-7.96,7.8c-3.35,1.83-7.06,2.75-11.14,2.75s-7.68-.92-10.94-2.75ZM1156.45,351.11c2.25-1.2,4.07-3.01,5.45-5.41,1.39-2.41,2.08-5.33,2.08-8.79s-.68-6.38-2.04-8.79c-1.36-2.4-3.14-4.2-5.33-5.37-2.2-1.18-4.58-1.77-7.14-1.77s-5.01.59-7.18,1.77c-2.17,1.18-3.91,2.97-5.22,5.37-1.31,2.41-1.96,5.33-1.96,8.79s.64,6.46,1.92,8.86c1.28,2.41,2.99,4.2,5.14,5.37,2.14,1.18,4.5,1.77,7.06,1.77s4.97-.6,7.22-1.8Z"/>
        <path class="cls-1" d="M1192.97,316.75c2.33-1.36,5.16-2.04,8.51-2.04v7.38h-1.88c-8,0-12,4.34-12,13.02v23.38h-7.14v-42.99h7.14v6.98c1.25-2.46,3.05-4.37,5.37-5.73Z"/>
      </g>
      <g>
        <path class="cls-1" d="M835.69,398.41v62.69h-15.27v-37.6l-14.02,37.6h-12.32l-14.11-37.69v37.69h-15.27v-62.69h18.04l17.59,43.4,17.42-43.4h17.95Z"/>
        <path class="cls-1" d="M897.58,411.27l-31.26,73.5h-16.43l11.43-25.36-20.27-48.14h17.06l11.52,31.17,11.43-31.17h16.52Z"/>
        <path class="cls-1" d="M914.01,459.49c-3.63-1.49-6.53-3.69-8.71-6.61-2.17-2.92-3.32-6.43-3.44-10.54h16.25c.24,2.32,1.04,4.1,2.41,5.31,1.37,1.22,3.16,1.83,5.36,1.83s4.05-.52,5.36-1.56c1.31-1.04,1.96-2.48,1.96-4.33,0-1.55-.52-2.83-1.56-3.84-1.04-1.01-2.32-1.84-3.84-2.5-1.52-.65-3.68-1.4-6.47-2.23-4.05-1.25-7.35-2.5-9.91-3.75-2.56-1.25-4.76-3.1-6.61-5.54-1.85-2.44-2.77-5.63-2.77-9.56,0-5.83,2.11-10.4,6.34-13.71,4.23-3.3,9.73-4.96,16.52-4.96s12.47,1.65,16.7,4.96c4.23,3.3,6.49,7.9,6.79,13.8h-16.52c-.12-2.02-.86-3.62-2.23-4.78-1.37-1.16-3.13-1.74-5.27-1.74-1.85,0-3.34.49-4.47,1.47-1.13.98-1.7,2.4-1.7,4.24,0,2.03.95,3.6,2.86,4.73,1.9,1.13,4.88,2.35,8.93,3.66,4.05,1.37,7.34,2.68,9.87,3.93,2.53,1.25,4.72,3.07,6.56,5.45,1.84,2.38,2.77,5.45,2.77,9.2s-.91,6.82-2.72,9.74c-1.82,2.92-4.45,5.24-7.9,6.96-3.45,1.73-7.53,2.59-12.24,2.59s-8.69-.74-12.32-2.23Z"/>
        <path class="cls-1" d="M1002.79,471.82l-8.04-10.81c-2.38.48-4.7.71-6.97.71-5.89,0-11.3-1.37-16.21-4.11-4.91-2.74-8.81-6.57-11.7-11.48-2.89-4.91-4.33-10.43-4.33-16.57s1.44-11.64,4.33-16.52c2.89-4.88,6.79-8.69,11.7-11.43,4.91-2.74,10.31-4.11,16.21-4.11s11.3,1.37,16.21,4.11c4.91,2.74,8.78,6.55,11.61,11.43,2.83,4.88,4.24,10.39,4.24,16.52,0,5.36-1.09,10.26-3.26,14.69-2.17,4.44-5.2,8.12-9.06,11.03l13.75,16.52h-18.49ZM975.68,442.84c3.01,3.3,7.04,4.96,12.1,4.96s9.01-1.67,12.01-5c3.01-3.33,4.51-7.74,4.51-13.22s-1.5-9.96-4.51-13.26c-3.01-3.3-7.01-4.96-12.01-4.96s-9.1,1.64-12.1,4.91c-3.01,3.27-4.51,7.71-4.51,13.31s1.5,9.96,4.51,13.26Z"/>
        <path class="cls-1" d="M1044.22,449.31h20.01v11.79h-35.28v-62.69h15.27v50.9Z"/>
      </g>
      <g>
        <path class="cls-1" d="M712.72,650.76H8.86L360.79,41.2l351.93,609.56ZM28.1,639.65h665.38L360.79,63.41,28.1,639.65Z"/>
        <g>
          <polygon class="cls-1" points="221.15 507.1 282.74 507.1 252.26 453.68 221.15 507.1"/>
          <polygon class="cls-1" points="175.43 514.12 164.24 531.74 164.24 575.19 205.52 532.96 227.11 551.81 254.52 551.29 222.65 514.12 175.43 514.12"/>
          <path class="cls-1" d="M432.87,378.84h-70.1l-77.98-31.89,19.72,34.52-75.84,41.91-43.77,75.56h23.62l43.95-75.45,43.03,75.43h44.74l-13.53,23.22,29.4,51.53,67.95-117.05-19.22-33.59,55.65.13,19.24,33.7h-38.07l-52.85,90.45,15.86,27.06,43.8-74.7,9.22-.32c24.78,0,85.45-5.74,85.45-30.52,0-44.08-66.23-89.98-110.31-89.98ZM497.86,477.41c0,3.47-2.84,6.31-6.31,6.31h-5.86c-3.47,0-6.31-2.84-6.31-6.31v-5.86c0-3.47,2.84-6.31,6.31-6.31h5.86c3.47,0,6.31,2.84,6.31,6.31v5.86Z"/>
        </g>
      </g>
    </g>
  </g>
</svg>