<?xml version="1.0" encoding="UTF-8"?>
<svg id="Layer_12" data-name="Layer 12" xmlns="http://www.w3.org/2000/svg" xmlns:xlink="http://www.w3.org/1999/xlink" viewBox="0 0 1275.01 691.96">
  <defs>
    <style>
      .cls-1 {
        fill: #fff;
      }

      .cls-2 {
        clip-path: url(#clippath);
      }
    </style>
    <clipPath id="clippath">
      <polyline class="cls-1" points="183.12 526.62 198.78 499.54 232.53 499.54 276.01 574.59 314.1 574.59 269.95 499.54 347.48 499.61 364.67 469.84 326.17 403.62 296.76 352.1 230.03 352.69 183.55 432.47 183.5 443.63 165.36 475.86 165.36 507.61 184.08 475.75"/>
    </clipPath>
  </defs>
  <g id="Layer_1" data-name="Layer 1">
    <g>
      <g>
        <g>
          <path class="cls-1" d="M792.38,331.14c-3.11,3.01-7.86,4.51-14.24,4.51h-10.51v22.83h-7.14v-54.68h17.65c6.17,0,10.86,1.49,14.08,4.47,3.22,2.98,4.82,6.82,4.82,11.53s-1.56,8.33-4.67,11.33ZM786.93,327.18c1.88-1.73,2.82-4.18,2.82-7.37,0-6.75-3.87-10.12-11.61-10.12h-10.51v20.08h10.51c3.97,0,6.9-.86,8.79-2.59Z"/>
          <path class="cls-1" d="M843.8,339.65h-34.36c.26,4.24,1.71,7.54,4.35,9.92,2.64,2.38,5.84,3.57,9.61,3.57,3.09,0,5.66-.72,7.73-2.16,2.07-1.44,3.52-3.36,4.35-5.77h7.69c-1.15,4.13-3.45,7.49-6.9,10.08-3.45,2.59-7.74,3.88-12.86,3.88-4.08,0-7.73-.91-10.94-2.74-3.22-1.83-5.74-4.43-7.57-7.81-1.83-3.37-2.75-7.28-2.75-11.73s.89-8.34,2.67-11.69c1.78-3.35,4.28-5.92,7.49-7.73,3.22-1.8,6.92-2.71,11.1-2.71s7.69.89,10.83,2.67c3.14,1.78,5.56,4.23,7.26,7.34,1.7,3.11,2.55,6.63,2.55,10.55,0,1.36-.08,2.8-.24,4.32ZM834.86,326.83c-1.2-1.96-2.84-3.45-4.9-4.47-2.07-1.02-4.35-1.53-6.86-1.53-3.61,0-6.68,1.15-9.22,3.45-2.54,2.3-3.99,5.49-4.35,9.57h27.14c0-2.72-.6-5.06-1.8-7.02Z"/>
          <path class="cls-1" d="M865.88,316.74c2.33-1.36,5.16-2.04,8.51-2.04v7.37h-1.88c-8,0-12,4.34-12,13.02v23.38h-7.14v-42.99h7.14v6.98c1.25-2.46,3.05-4.37,5.37-5.73Z"/>
          <path class="cls-1" d="M881.29,325.26c1.78-3.32,4.25-5.9,7.41-7.73,3.16-1.83,6.79-2.75,10.86-2.75,5.28,0,9.64,1.28,13.06,3.84,3.42,2.56,5.69,6.12,6.79,10.67h-7.69c-.73-2.61-2.16-4.68-4.28-6.2-2.12-1.52-4.75-2.28-7.88-2.28-4.08,0-7.37,1.4-9.88,4.2-2.51,2.8-3.77,6.76-3.77,11.88s1.26,9.18,3.77,12c2.51,2.82,5.81,4.24,9.88,4.24,3.14,0,5.75-.73,7.84-2.2,2.09-1.46,3.53-3.55,4.31-6.28h7.69c-1.15,4.39-3.45,7.91-6.9,10.55-3.45,2.64-7.77,3.96-12.94,3.96-4.08,0-7.7-.91-10.86-2.74-3.17-1.83-5.64-4.42-7.41-7.77-1.78-3.35-2.67-7.27-2.67-11.77s.89-8.33,2.67-11.65Z"/>
          <path class="cls-1" d="M936.25,356.44c-3.27-1.83-5.83-4.43-7.69-7.81-1.86-3.37-2.78-7.28-2.78-11.73s.95-8.27,2.86-11.65c1.91-3.37,4.51-5.96,7.81-7.77,3.29-1.8,6.98-2.71,11.06-2.71s7.77.9,11.06,2.71c3.29,1.8,5.9,4.38,7.81,7.73,1.91,3.35,2.86,7.24,2.86,11.69s-.98,8.35-2.94,11.73c-1.96,3.37-4.62,5.98-7.96,7.81-3.35,1.83-7.06,2.74-11.14,2.74s-7.68-.91-10.94-2.74ZM954.41,351.1c2.25-1.2,4.07-3.01,5.45-5.41,1.39-2.41,2.08-5.33,2.08-8.79s-.68-6.38-2.04-8.79c-1.36-2.41-3.14-4.2-5.33-5.37-2.2-1.17-4.58-1.77-7.14-1.77s-5.01.59-7.18,1.77c-2.17,1.18-3.91,2.97-5.22,5.37-1.31,2.41-1.96,5.33-1.96,8.79s.64,6.46,1.92,8.86c1.28,2.41,2.99,4.2,5.14,5.37,2.14,1.18,4.5,1.77,7.06,1.77s4.97-.6,7.22-1.8Z"/>
          <path class="cls-1" d="M1012.06,319.45c3.24,3.17,4.86,7.73,4.86,13.69v25.34h-7.06v-24.32c0-4.29-1.07-7.57-3.22-9.85-2.14-2.27-5.07-3.41-8.79-3.41s-6.76,1.17-8.98,3.53c-2.22,2.35-3.33,5.78-3.33,10.27v23.77h-7.14v-42.99h7.14v6.12c1.41-2.2,3.33-3.9,5.77-5.1,2.43-1.2,5.11-1.8,8.04-1.8,5.23,0,9.47,1.58,12.71,4.74Z"/>
          <path class="cls-1" d="M1028.38,325.26c1.78-3.32,4.22-5.9,7.33-7.73,3.11-1.83,6.58-2.75,10.39-2.75s7.03.81,9.81,2.43c2.77,1.62,4.84,3.66,6.2,6.12v-7.85h7.22v42.99h-7.22v-8c-1.41,2.51-3.52,4.59-6.31,6.24-2.8,1.65-6.05,2.47-9.77,2.47s-7.27-.94-10.36-2.82c-3.09-1.88-5.52-4.52-7.3-7.92-1.78-3.4-2.67-7.27-2.67-11.61s.89-8.25,2.67-11.57ZM1060.15,328.43c-1.31-2.4-3.07-4.25-5.3-5.53-2.22-1.28-4.67-1.92-7.33-1.92s-5.1.63-7.3,1.88c-2.2,1.25-3.95,3.09-5.26,5.49-1.31,2.41-1.96,5.23-1.96,8.47s.65,6.16,1.96,8.59c1.31,2.43,3.06,4.29,5.26,5.57,2.2,1.28,4.63,1.92,7.3,1.92s5.11-.64,7.33-1.92c2.22-1.28,3.99-3.14,5.3-5.57,1.31-2.43,1.96-5.27,1.96-8.51s-.65-6.06-1.96-8.47Z"/>
          <path class="cls-1" d="M1119.85,321.37h-9.02v37.11h-7.14v-37.11h-5.57v-5.88h5.57v-3.06c0-4.81,1.24-8.33,3.73-10.55,2.48-2.22,6.47-3.33,11.96-3.33v5.96c-3.14,0-5.35.62-6.63,1.84-1.28,1.23-1.92,3.26-1.92,6.08v3.06h9.02v5.88Z"/>
          <path class="cls-1" d="M1134.09,356.44c-3.27-1.83-5.83-4.43-7.69-7.81-1.86-3.37-2.78-7.28-2.78-11.73s.95-8.27,2.86-11.65c1.91-3.37,4.51-5.96,7.81-7.77,3.29-1.8,6.98-2.71,11.06-2.71s7.77.9,11.06,2.71c3.29,1.8,5.9,4.38,7.81,7.73,1.91,3.35,2.86,7.24,2.86,11.69s-.98,8.35-2.94,11.73-4.62,5.98-7.96,7.81c-3.35,1.83-7.06,2.74-11.14,2.74s-7.68-.91-10.94-2.74ZM1152.25,351.1c2.25-1.2,4.07-3.01,5.45-5.41,1.39-2.41,2.08-5.33,2.08-8.79s-.68-6.38-2.04-8.79c-1.36-2.41-3.14-4.2-5.33-5.37-2.2-1.17-4.58-1.77-7.14-1.77s-5.01.59-7.18,1.77c-2.17,1.18-3.91,2.97-5.22,5.37-1.31,2.41-1.96,5.33-1.96,8.79s.64,6.46,1.92,8.86c1.28,2.41,2.99,4.2,5.14,5.37,2.14,1.18,4.5,1.77,7.06,1.77s4.97-.6,7.22-1.8Z"/>
          <path class="cls-1" d="M1188.77,316.74c2.33-1.36,5.16-2.04,8.51-2.04v7.37h-1.88c-8,0-12,4.34-12,13.02v23.38h-7.14v-42.99h7.14v6.98c1.25-2.46,3.05-4.37,5.37-5.73Z"/>
        </g>
        <g>
          <path class="cls-1" d="M805.77,428.51c-1.67,3.01-4.23,5.43-7.68,7.28-3.45,1.85-7.74,2.77-12.86,2.77h-9.47v22.51h-15.27v-62.7h24.74c5,0,9.23.86,12.68,2.59,3.45,1.73,6.04,4.11,7.77,7.14,1.73,3.04,2.59,6.52,2.59,10.45,0,3.63-.83,6.95-2.5,9.96ZM790.59,424.36c1.43-1.37,2.14-3.3,2.14-5.8s-.71-4.44-2.14-5.81c-1.43-1.37-3.6-2.05-6.52-2.05h-8.31v15.72h8.31c2.92,0,5.09-.68,6.52-2.05Z"/>
          <path class="cls-1" d="M824.75,458.66c-3.9-2.08-6.97-5.06-9.2-8.93-2.23-3.87-3.35-8.39-3.35-13.57s1.13-9.63,3.39-13.53c2.26-3.9,5.36-6.89,9.29-8.98,3.93-2.08,8.33-3.13,13.22-3.13s9.29,1.04,13.22,3.13c3.93,2.09,7.02,5.08,9.29,8.98,2.26,3.9,3.39,8.41,3.39,13.53s-1.15,9.63-3.44,13.53c-2.29,3.9-5.42,6.89-9.38,8.97-3.96,2.09-8.38,3.13-13.26,3.13s-9.27-1.04-13.17-3.13ZM845.38,445.35c2.05-2.14,3.08-5.21,3.08-9.2s-1-7.06-2.99-9.2c-2-2.14-4.45-3.21-7.37-3.21s-5.45,1.06-7.41,3.17c-1.96,2.11-2.95,5.19-2.95,9.24s.97,7.05,2.9,9.2c1.93,2.14,4.36,3.22,7.28,3.22s5.4-1.07,7.46-3.22Z"/>
          <path class="cls-1" d="M880.07,459.55c-3.39-1.49-6.07-3.53-8.04-6.12s-3.07-5.49-3.3-8.71h15.09c.18,1.73.98,3.13,2.41,4.2,1.43,1.07,3.18,1.61,5.27,1.61,1.9,0,3.38-.37,4.42-1.12,1.04-.74,1.56-1.71,1.56-2.9,0-1.43-.74-2.48-2.23-3.17-1.49-.69-3.9-1.44-7.23-2.28-3.57-.83-6.55-1.71-8.93-2.63-2.38-.92-4.44-2.38-6.16-4.38-1.73-1.99-2.59-4.69-2.59-8.08,0-2.86.79-5.46,2.37-7.81,1.58-2.35,3.9-4.21,6.97-5.58,3.07-1.37,6.71-2.05,10.94-2.05,6.25,0,11.18,1.55,14.78,4.64,3.6,3.1,5.67,7.2,6.21,12.32h-14.11c-.24-1.73-1-3.09-2.28-4.11-1.28-1.01-2.96-1.52-5.05-1.52-1.79,0-3.16.34-4.11,1.03-.95.69-1.43,1.62-1.43,2.81,0,1.43.76,2.5,2.28,3.21,1.52.72,3.88,1.43,7.1,2.14,3.69.96,6.7,1.89,9.02,2.81,2.32.93,4.36,2.41,6.12,4.47,1.76,2.05,2.66,4.81,2.72,8.26,0,2.92-.82,5.52-2.46,7.81-1.64,2.29-3.99,4.09-7.06,5.4-3.07,1.31-6.62,1.96-10.67,1.96-4.35,0-8.22-.74-11.61-2.23Z"/>
          <path class="cls-1" d="M948.3,448.12v12.95h-7.77c-5.54,0-9.85-1.35-12.95-4.06-3.1-2.71-4.64-7.13-4.64-13.26v-19.83h-6.07v-12.68h6.07v-12.15h15.27v12.15h10v12.68h-10v20.01c0,1.49.36,2.56,1.07,3.21s1.9.98,3.57.98h5.45Z"/>
          <path class="cls-1" d="M984.78,412.66c2.65,1.43,4.69,3.3,6.12,5.63v-7.06h15.27v49.74c0,4.59-.91,8.74-2.72,12.46-1.82,3.72-4.59,6.68-8.31,8.89-3.72,2.2-8.35,3.3-13.89,3.3-7.38,0-13.37-1.74-17.95-5.22-4.59-3.48-7.2-8.2-7.86-14.16h15.09c.48,1.91,1.61,3.41,3.39,4.51,1.79,1.1,3.99,1.65,6.61,1.65,3.16,0,5.67-.91,7.55-2.72,1.88-1.82,2.81-4.72,2.81-8.71v-7.06c-1.49,2.32-3.54,4.21-6.16,5.67-2.62,1.46-5.69,2.19-9.2,2.19-4.11,0-7.83-1.06-11.16-3.17-3.34-2.11-5.97-5.12-7.9-9.02-1.94-3.9-2.9-8.41-2.9-13.53s.97-9.61,2.9-13.49c1.93-3.87,4.57-6.85,7.9-8.93,3.33-2.08,7.06-3.13,11.16-3.13,3.51,0,6.59.71,9.24,2.14ZM987.73,427.13c-2.11-2.2-4.69-3.3-7.73-3.3s-5.61,1.09-7.73,3.26c-2.11,2.17-3.17,5.17-3.17,8.98s1.06,6.83,3.17,9.06c2.11,2.23,4.69,3.35,7.73,3.35s5.61-1.1,7.73-3.3c2.11-2.2,3.17-5.21,3.17-9.02s-1.06-6.82-3.17-9.02Z"/>
          <path class="cls-1" d="M1038.95,413.06c2.68-1.58,5.66-2.37,8.93-2.37v16.16h-4.2c-3.81,0-6.67.82-8.57,2.46-1.91,1.64-2.86,4.51-2.86,8.62v23.13h-15.27v-49.83h15.27v8.31c1.79-2.74,4.02-4.9,6.7-6.48Z"/>
          <path class="cls-1" d="M1101.73,439.81h-34.56c.24,3.1,1.24,5.46,2.99,7.1,1.76,1.64,3.91,2.46,6.47,2.46,3.81,0,6.46-1.61,7.95-4.82h16.25c-.83,3.27-2.34,6.22-4.51,8.84-2.17,2.62-4.9,4.67-8.17,6.16-3.28,1.49-6.94,2.23-10.98,2.23-4.88,0-9.23-1.04-13.04-3.13-3.81-2.08-6.79-5.06-8.93-8.93-2.14-3.87-3.21-8.39-3.21-13.57s1.06-9.7,3.17-13.58c2.11-3.87,5.07-6.85,8.89-8.93,3.81-2.08,8.19-3.13,13.13-3.13s9.11,1.01,12.86,3.04c3.75,2.03,6.68,4.91,8.8,8.66,2.11,3.75,3.17,8.13,3.17,13.13,0,1.43-.09,2.92-.27,4.47ZM1086.37,431.33c0-2.62-.89-4.7-2.68-6.25-1.79-1.55-4.02-2.32-6.7-2.32s-4.72.74-6.47,2.23c-1.76,1.49-2.84,3.6-3.26,6.34h19.11Z"/>
          <path class="cls-1" d="M1120.22,459.46c-3.63-1.49-6.53-3.69-8.71-6.61-2.17-2.92-3.32-6.43-3.44-10.54h16.25c.24,2.32,1.04,4.09,2.41,5.31,1.37,1.22,3.16,1.83,5.36,1.83s4.05-.52,5.36-1.56c1.31-1.04,1.96-2.48,1.96-4.33,0-1.55-.52-2.83-1.56-3.84-1.04-1.01-2.32-1.84-3.84-2.5-1.52-.66-3.68-1.4-6.47-2.23-4.05-1.25-7.35-2.5-9.91-3.75-2.56-1.25-4.76-3.1-6.61-5.54-1.85-2.44-2.77-5.63-2.77-9.56,0-5.83,2.11-10.4,6.34-13.71,4.23-3.3,9.73-4.96,16.52-4.96s12.47,1.65,16.7,4.96c4.23,3.3,6.49,7.9,6.79,13.8h-16.52c-.12-2.02-.86-3.62-2.23-4.78-1.37-1.16-3.13-1.74-5.27-1.74-1.85,0-3.33.49-4.47,1.47-1.13.98-1.7,2.4-1.7,4.24,0,2.03.95,3.6,2.86,4.73,1.9,1.13,4.88,2.35,8.93,3.66,4.05,1.37,7.34,2.68,9.87,3.93,2.53,1.25,4.72,3.07,6.56,5.45,1.84,2.38,2.77,5.45,2.77,9.2s-.91,6.82-2.72,9.73c-1.82,2.92-4.45,5.24-7.9,6.97-3.45,1.73-7.53,2.59-12.24,2.59s-8.69-.74-12.32-2.23Z"/>
          <path class="cls-1" d="M1208.9,471.78l-8.04-10.81c-2.38.48-4.7.71-6.97.71-5.89,0-11.3-1.37-16.21-4.11-4.91-2.74-8.81-6.56-11.7-11.48-2.89-4.91-4.33-10.43-4.33-16.57s1.44-11.64,4.33-16.52c2.89-4.88,6.79-8.69,11.7-11.43,4.91-2.74,10.31-4.11,16.21-4.11s11.3,1.37,16.21,4.11c4.91,2.74,8.78,6.55,11.61,11.43,2.83,4.88,4.24,10.39,4.24,16.52,0,5.36-1.09,10.26-3.26,14.69-2.17,4.44-5.2,8.11-9.06,11.03l13.75,16.52h-18.49ZM1181.8,442.8c3.01,3.3,7.04,4.96,12.1,4.96s9.01-1.67,12.01-5c3.01-3.33,4.51-7.74,4.51-13.22s-1.5-9.96-4.51-13.26c-3.01-3.3-7.01-4.96-12.01-4.96s-9.1,1.64-12.1,4.91c-3.01,3.27-4.51,7.71-4.51,13.31s1.5,9.96,4.51,13.26Z"/>
          <path class="cls-1" d="M1250.34,449.28h20.01v11.79h-35.28v-62.7h15.27v50.91Z"/>
        </g>
      </g>
      <g>
        <path class="cls-1" d="M708.52,650.76H4.66L356.59,41.2l351.93,609.56ZM23.9,639.65h665.38L356.59,63.41,23.9,639.65Z"/>
        <g>
          <polygon class="cls-1" points="437.6 575.14 399.52 575.14 360.2 507.36 388.75 458.47 396.45 502.29 437.6 575.14"/>
          <path class="cls-1" d="M462.75,347.31h-9.88l-4.1,7.01-30.61,53.02-22.61,39.16-2.6,4.5h72.68l22.1,22.1v39.93h-35.45c-3.61,0-6.54,2.93-6.54,6.54v26.46h42.31c17.84,0,32.32-14.29,32.65-32.05h.02v-108.71c0-32.02-25.95-57.97-57.97-57.97ZM477.35,403.95c0,3.6-2.94,6.54-6.54,6.54h-6.08c-3.6,0-6.54-2.94-6.54-6.54v-6.08c0-3.6,2.94-6.54,6.54-6.54h6.08c3.6,0,6.54,2.94,6.54,6.54v6.08Z"/>
          <g>
            <polyline class="cls-1" points="183.12 526.62 198.78 499.54 232.53 499.54 276.01 574.59 314.1 574.59 269.95 499.54 347.48 499.61 364.67 469.84 326.17 403.62 296.76 352.1 230.03 352.69 183.55 432.47 183.5 443.63 165.36 475.86 165.36 507.61 184.08 475.75"/>
            <g class="cls-2">
              <polygon class="cls-1" points="163.78 527.65 163.52 527.5 163.52 527.85 163.78 527.65"/>
            </g>
          </g>
          <polygon class="cls-1" points="373.51 454.48 443.17 333.82 303.84 333.82 373.51 454.48"/>
          <path class="cls-1" d="M353.74,514.79h-20.59v53.81c0,3.61,2.93,6.54,6.54,6.54h31.48l-.15-30.33-17.26-30.02Z"/>
          <path class="cls-1" d="M221.78,554.02l15.7-27.09-7-12.14h-29.71l-15.47,26.8v26.6c0,3.61,2.93,6.54,6.54,6.54h41.76l-11.8-20.7Z"/>
        </g>
      </g>
    </g>
  </g>
</svg>