<?xml version="1.0" encoding="UTF-8"?>
<svg id="Layer_12" data-name="Layer 12" xmlns="http://www.w3.org/2000/svg" viewBox="0 0 1206.65 691.96">
  <defs>
    <style>
      .cls-1 {
        fill: #fff;
      }
    </style>
  </defs>
  <g id="Layer_1" data-name="Layer 1">
    <g>
      <g>
        <path class="cls-1" d="M710.4,650.82H6.41L358.41,41.14l352,609.67ZM25.65,639.71h665.51L358.41,63.36,25.65,639.71Z"/>
        <g>
          <polygon class="cls-1" points="328.69 441.76 358.61 493.59 388.54 441.76 328.69 441.76"/>
          <path class="cls-1" d="M358.41,399.05c-33.9,0-61.48,27.58-61.48,61.47s27.58,61.47,61.48,61.47,61.47-27.58,61.47-61.47-27.58-61.47-61.47-61.47ZM358.41,503.26c-23.56,0-42.74-19.17-42.74-42.74s19.17-42.74,42.74-42.74,42.74,19.17,42.74,42.74-19.17,42.74-42.74,42.74Z"/>
          <path class="cls-1" d="M239.12,574.61l7.23-12.47h76.18l7.23,12.47h204.4l-175.75-304.42-175.75,304.42h56.46ZM315.02,385.37h86.78l43.39,75.15-43.39,75.15h-86.78l-43.39-75.15,43.39-75.15Z"/>
        </g>
      </g>
      <g>
        <path class="cls-1" d="M826.01,398.96l-22.3,62.87h-19.16l-22.3-62.87h16.3l15.58,47.47,15.67-47.47h16.21Z"/>
        <path class="cls-1" d="M828.56,423.23c1.94-3.88,4.58-6.87,7.93-8.96,3.34-2.09,7.08-3.13,11.2-3.13,3.52,0,6.61.72,9.27,2.15,2.66,1.43,4.7,3.31,6.13,5.64v-7.07h15.31v49.97h-15.31v-7.07c-1.49,2.33-3.57,4.21-6.22,5.64-2.66,1.43-5.75,2.15-9.27,2.15-4.06,0-7.76-1.06-11.11-3.18-3.34-2.12-5.99-5.14-7.93-9.05-1.94-3.91-2.91-8.43-2.91-13.57s.97-9.64,2.91-13.52ZM859.9,427.8c-2.12-2.21-4.7-3.31-7.75-3.31s-5.63,1.09-7.75,3.27c-2.12,2.18-3.18,5.18-3.18,9s1.06,6.85,3.18,9.09c2.12,2.24,4.7,3.36,7.75,3.36s5.63-1.1,7.75-3.31c2.12-2.21,3.18-5.22,3.18-9.04s-1.06-6.84-3.18-9.05Z"/>
        <path class="cls-1" d="M904.54,395.56v66.27h-15.31v-66.27h15.31Z"/>
        <path class="cls-1" d="M945.92,461.83l-15.22-20.96v20.96h-15.31v-66.27h15.31v36.63l15.13-20.33h18.9l-20.78,25.08,20.96,24.9h-18.99Z"/>
        <path class="cls-1" d="M1014.61,440.52h-34.66c.24,3.11,1.24,5.48,3,7.12,1.76,1.64,3.92,2.46,6.49,2.46,3.82,0,6.48-1.61,7.97-4.84h16.3c-.84,3.28-2.34,6.24-4.52,8.87-2.18,2.63-4.91,4.69-8.19,6.18-3.28,1.49-6.96,2.24-11.02,2.24-4.9,0-9.25-1.04-13.07-3.13-3.82-2.09-6.81-5.07-8.96-8.96-2.15-3.88-3.22-8.42-3.22-13.61s1.06-9.73,3.18-13.61c2.12-3.88,5.09-6.87,8.91-8.96,3.82-2.09,8.21-3.13,13.16-3.13s9.13,1.02,12.9,3.04c3.76,2.03,6.7,4.93,8.82,8.69,2.12,3.76,3.18,8.15,3.18,13.16,0,1.43-.09,2.93-.27,4.48ZM999.2,432.01c0-2.62-.89-4.71-2.69-6.27-1.79-1.55-4.03-2.33-6.72-2.33s-4.73.75-6.49,2.24c-1.76,1.49-2.85,3.61-3.27,6.36h19.16Z"/>
        <path class="cls-1" d="M1071.83,411.86l-31.34,73.7h-16.48l11.46-25.43-20.33-48.27h17.11l11.55,31.25,11.46-31.25h16.57Z"/>
        <path class="cls-1" d="M826.01,398.96l-22.3,62.87h-19.16l-22.3-62.87h16.3l15.58,47.47,15.67-47.47h16.21Z"/>
        <path class="cls-1" d="M828.56,423.23c1.94-3.88,4.58-6.87,7.93-8.96,3.34-2.09,7.08-3.13,11.2-3.13,3.52,0,6.61.72,9.27,2.15,2.66,1.43,4.7,3.31,6.13,5.64v-7.07h15.31v49.97h-15.31v-7.07c-1.49,2.33-3.57,4.21-6.22,5.64-2.66,1.43-5.75,2.15-9.27,2.15-4.06,0-7.76-1.06-11.11-3.18-3.34-2.12-5.99-5.14-7.93-9.05-1.94-3.91-2.91-8.43-2.91-13.57s.97-9.64,2.91-13.52ZM859.9,427.8c-2.12-2.21-4.7-3.31-7.75-3.31s-5.63,1.09-7.75,3.27c-2.12,2.18-3.18,5.18-3.18,9s1.06,6.85,3.18,9.09c2.12,2.24,4.7,3.36,7.75,3.36s5.63-1.1,7.75-3.31c2.12-2.21,3.18-5.22,3.18-9.04s-1.06-6.84-3.18-9.05Z"/>
        <path class="cls-1" d="M904.54,395.56v66.27h-15.31v-66.27h15.31Z"/>
        <path class="cls-1" d="M945.92,461.83l-15.22-20.96v20.96h-15.31v-66.27h15.31v36.63l15.13-20.33h18.9l-20.78,25.08,20.96,24.9h-18.99Z"/>
        <path class="cls-1" d="M1014.61,440.52h-34.66c.24,3.11,1.24,5.48,3,7.12,1.76,1.64,3.92,2.46,6.49,2.46,3.82,0,6.48-1.61,7.97-4.84h16.3c-.84,3.28-2.34,6.24-4.52,8.87-2.18,2.63-4.91,4.69-8.19,6.18-3.28,1.49-6.96,2.24-11.02,2.24-4.9,0-9.25-1.04-13.07-3.13-3.82-2.09-6.81-5.07-8.96-8.96-2.15-3.88-3.22-8.42-3.22-13.61s1.06-9.73,3.18-13.61c2.12-3.88,5.09-6.87,8.91-8.96,3.82-2.09,8.21-3.13,13.16-3.13s9.13,1.02,12.9,3.04c3.76,2.03,6.7,4.93,8.82,8.69,2.12,3.76,3.18,8.15,3.18,13.16,0,1.43-.09,2.93-.27,4.48ZM999.2,432.01c0-2.62-.89-4.71-2.69-6.27-1.79-1.55-4.03-2.33-6.72-2.33s-4.73.75-6.49,2.24c-1.76,1.49-2.85,3.61-3.27,6.36h19.16Z"/>
        <path class="cls-1" d="M1071.83,411.86l-31.34,73.7h-16.48l11.46-25.43-20.33-48.27h17.11l11.55,31.25,11.46-31.25h16.57Z"/>
      </g>
      <g>
        <path class="cls-1" d="M794.22,336.81c-3.12,3.02-7.88,4.52-14.28,4.52h-10.54v22.89h-7.16v-54.83h17.7c6.19,0,10.89,1.49,14.12,4.48,3.23,2.99,4.84,6.84,4.84,11.56s-1.56,8.35-4.68,11.37ZM788.75,332.84c1.89-1.73,2.83-4.2,2.83-7.4,0-6.76-3.88-10.15-11.64-10.15h-10.54v20.14h10.54c3.98,0,6.92-.86,8.81-2.59Z"/>
        <path class="cls-1" d="M845.78,345.34h-34.46c.26,4.25,1.72,7.57,4.37,9.95,2.65,2.39,5.86,3.58,9.64,3.58,3.09,0,5.68-.72,7.75-2.16,2.07-1.44,3.53-3.37,4.37-5.78h7.71c-1.15,4.14-3.46,7.51-6.92,10.11s-7.76,3.89-12.9,3.89c-4.09,0-7.75-.92-10.97-2.75-3.23-1.83-5.76-4.44-7.59-7.83-1.84-3.38-2.75-7.3-2.75-11.76s.89-8.37,2.67-11.72c1.78-3.36,4.29-5.94,7.51-7.75,3.23-1.81,6.93-2.71,11.13-2.71s7.71.89,10.86,2.67c3.15,1.78,5.57,4.24,7.28,7.35,1.7,3.12,2.56,6.65,2.56,10.58,0,1.36-.08,2.8-.24,4.32ZM836.81,332.48c-1.21-1.97-2.85-3.46-4.92-4.48-2.07-1.02-4.37-1.53-6.88-1.53-3.62,0-6.7,1.15-9.24,3.46-2.54,2.31-4,5.51-4.37,9.6h27.22c0-2.73-.6-5.07-1.81-7.04Z"/>
        <path class="cls-1" d="M867.93,322.38c2.33-1.36,5.18-2.05,8.53-2.05v7.4h-1.89c-8.02,0-12.04,4.35-12.04,13.06v23.44h-7.16v-43.11h7.16v7c1.26-2.47,3.05-4.38,5.39-5.74Z"/>
        <path class="cls-1" d="M883.38,330.91c1.78-3.33,4.26-5.91,7.43-7.75,3.17-1.83,6.8-2.75,10.89-2.75,5.3,0,9.66,1.28,13.1,3.85,3.43,2.57,5.7,6.14,6.8,10.7h-7.71c-.73-2.62-2.16-4.69-4.29-6.21-2.12-1.52-4.76-2.28-7.91-2.28-4.09,0-7.39,1.4-9.91,4.21-2.52,2.81-3.78,6.78-3.78,11.92s1.26,9.2,3.78,12.03c2.52,2.83,5.82,4.25,9.91,4.25,3.15,0,5.77-.73,7.87-2.2,2.1-1.47,3.54-3.57,4.33-6.29h7.71c-1.15,4.41-3.46,7.93-6.92,10.58-3.46,2.65-7.79,3.97-12.98,3.97-4.09,0-7.72-.92-10.89-2.75-3.17-1.83-5.65-4.43-7.43-7.79-1.78-3.36-2.67-7.29-2.67-11.8s.89-8.35,2.67-11.68Z"/>
        <path class="cls-1" d="M938.49,362.18c-3.28-1.83-5.85-4.44-7.71-7.83-1.86-3.38-2.79-7.3-2.79-11.76s.96-8.3,2.87-11.68c1.91-3.38,4.52-5.98,7.83-7.79,3.3-1.81,7-2.71,11.09-2.71s7.79.9,11.09,2.71c3.3,1.81,5.91,4.39,7.83,7.75,1.91,3.36,2.87,7.26,2.87,11.72s-.98,8.38-2.95,11.76c-1.97,3.38-4.63,5.99-7.98,7.83-3.36,1.84-7.08,2.75-11.17,2.75s-7.7-.92-10.97-2.75ZM956.7,356.83c2.25-1.21,4.08-3.02,5.47-5.43,1.39-2.41,2.08-5.35,2.08-8.81s-.68-6.4-2.05-8.81c-1.36-2.41-3.15-4.21-5.35-5.39-2.2-1.18-4.59-1.77-7.16-1.77s-5.02.59-7.2,1.77c-2.18,1.18-3.92,2.98-5.23,5.39-1.31,2.41-1.97,5.35-1.97,8.81s.64,6.48,1.93,8.89c1.28,2.41,3,4.21,5.15,5.39,2.15,1.18,4.51,1.77,7.08,1.77s4.98-.6,7.24-1.81Z"/>
        <path class="cls-1" d="M1014.51,325.09c3.25,3.17,4.88,7.75,4.88,13.73v25.41h-7.08v-24.39c0-4.3-1.08-7.59-3.23-9.87-2.15-2.28-5.09-3.42-8.81-3.42s-6.78,1.18-9.01,3.54c-2.23,2.36-3.34,5.8-3.34,10.31v23.83h-7.16v-43.11h7.16v6.13c1.42-2.2,3.34-3.91,5.78-5.11,2.44-1.2,5.13-1.81,8.06-1.81,5.24,0,9.49,1.59,12.74,4.76Z"/>
        <path class="cls-1" d="M1030.88,330.91c1.78-3.33,4.23-5.91,7.35-7.75,3.12-1.83,6.59-2.75,10.42-2.75s7.05.81,9.83,2.44c2.78,1.63,4.85,3.67,6.21,6.13v-7.86h7.24v43.11h-7.24v-8.02c-1.42,2.52-3.53,4.6-6.33,6.25-2.81,1.65-6.07,2.48-9.79,2.48s-7.29-.94-10.38-2.83c-3.09-1.89-5.53-4.54-7.32-7.94-1.78-3.41-2.67-7.29-2.67-11.64s.89-8.27,2.67-11.6ZM1062.74,334.1c-1.31-2.41-3.08-4.26-5.31-5.55-2.23-1.28-4.68-1.93-7.35-1.93s-5.11.63-7.32,1.89c-2.2,1.26-3.96,3.1-5.27,5.51-1.31,2.41-1.97,5.24-1.97,8.5s.66,6.17,1.97,8.61c1.31,2.44,3.07,4.3,5.27,5.59,2.2,1.28,4.64,1.93,7.32,1.93s5.13-.64,7.35-1.93c2.23-1.28,4-3.15,5.31-5.59,1.31-2.44,1.97-5.28,1.97-8.53s-.66-6.08-1.97-8.5Z"/>
        <path class="cls-1" d="M1122.6,327.02h-9.05v37.21h-7.16v-37.21h-5.59v-5.9h5.59v-3.07c0-4.82,1.25-8.35,3.74-10.58,2.49-2.23,6.49-3.34,12-3.34v5.98c-3.15,0-5.36.62-6.65,1.85-1.29,1.23-1.93,3.26-1.93,6.1v3.07h9.05v5.9Z"/>
        <path class="cls-1" d="M1136.88,362.18c-3.28-1.83-5.85-4.44-7.71-7.83-1.86-3.38-2.79-7.3-2.79-11.76s.96-8.3,2.87-11.68c1.91-3.38,4.52-5.98,7.83-7.79,3.3-1.81,7-2.71,11.09-2.71s7.79.9,11.09,2.71c3.3,1.81,5.91,4.39,7.83,7.75,1.91,3.36,2.87,7.26,2.87,11.72s-.98,8.38-2.95,11.76c-1.97,3.38-4.63,5.99-7.98,7.83-3.36,1.84-7.08,2.75-11.17,2.75s-7.7-.92-10.97-2.75ZM1155.09,356.83c2.25-1.21,4.08-3.02,5.47-5.43,1.39-2.41,2.08-5.35,2.08-8.81s-.68-6.4-2.05-8.81c-1.36-2.41-3.15-4.21-5.35-5.39-2.2-1.18-4.59-1.77-7.16-1.77s-5.02.59-7.2,1.77c-2.18,1.18-3.92,2.98-5.23,5.39-1.31,2.41-1.97,5.35-1.97,8.81s.64,6.48,1.93,8.89c1.28,2.41,3,4.21,5.15,5.39,2.15,1.18,4.51,1.77,7.08,1.77s4.98-.6,7.24-1.81Z"/>
        <path class="cls-1" d="M1191.7,322.38c2.33-1.36,5.18-2.05,8.53-2.05v7.4h-1.89c-8.02,0-12.04,4.35-12.04,13.06v23.44h-7.16v-43.11h7.16v7c1.26-2.47,3.05-4.38,5.39-5.74Z"/>
      </g>
    </g>
  </g>
</svg>