<?xml version="1.0" encoding="utf-8"?>
<!-- Generator: Adobe Illustrator 27.1.1, SVG Export Plug-In . SVG Version: 6.00 Build 0)  -->
<svg version="1.1" id="Layer_1" xmlns="http://www.w3.org/2000/svg" xmlns:xlink="http://www.w3.org/1999/xlink" x="0px" y="0px"
	 viewBox="0 0 530.5 156.5" style="enable-background:new 0 0 530.5 156.5;" xml:space="preserve">
<style type="text/css">
	.st0{fill:#282727;}
</style>
<g>
	<g>
		<g>
			<path class="st0" d="M181.5,61.1c0-4.9-3.4-7.6-8.9-7.6H164v15.2h8.7C178.2,68.7,181.5,65.4,181.5,61.1L181.5,61.1z M172.4,78.5
				H164v15h-11V43.6h20.4c11.9,0,19.1,7.1,19.1,17.2V61C192.6,72.5,183.6,78.5,172.4,78.5"/>
			<polygon class="st0" points="198.7,93.5 198.7,43.6 236.5,43.6 236.5,53.4 209.7,53.4 209.7,63.5 233.3,63.5 233.3,73.3 
				209.7,73.3 209.7,83.7 236.8,83.7 236.8,93.5 198.7,93.5 			"/>
			<path class="st0" d="M276.1,60.6c0-4.7-3.3-7.1-8.6-7.1h-10.9v14.3h11.2c5.3,0,8.4-2.9,8.4-7.1L276.1,60.6L276.1,60.6z
				 M275.8,93.5l-10.7-15.9h-8.6v15.9h-11V43.6h22.9c11.8,0,18.9,6.2,18.9,16.5v0.1c0,8.1-4.4,13.1-10.7,15.5l12.3,17.8L275.8,93.5
				L275.8,93.5z"/>
			<path class="st0" d="M318.8,94.8c-14.9,0-26-11.5-26-26v-0.1c0-14.4,10.9-26.1,26.4-26.1c9.6,0,15.3,3.2,20,7.8l-7.1,8.2
				c-3.9-3.5-7.9-5.7-12.9-5.7c-8.5,0-14.7,7.1-14.7,15.8v0.1c0,8.7,6,15.9,14.7,15.9c5.8,0,9.4-2.3,13.3-5.9l7.1,7.1
				C334.3,91.3,328.6,94.8,318.8,94.8"/>
			<path class="st0" d="M384.4,68.7c0-8.7-6.4-15.9-15.3-15.9c-9,0-15.2,7.1-15.2,15.8v0.1c0,8.7,6.4,15.9,15.4,15.9
				c9,0,15.2-7.1,15.2-15.8L384.4,68.7L384.4,68.7z M369,94.8c-15.7,0-26.9-11.6-26.9-26v-0.1c0-14.4,11.4-26.1,27-26.1
				c15.6,0,26.9,11.6,26.9,26v0.1C396,83.1,384.7,94.8,369,94.8"/>
			<polygon class="st0" points="456.6,93.5 481.3,42.5 505.9,93.5 493.5,93.5 481.3,68.1 469.1,93.5 			"/>
			<polygon class="st0" points="452.1,43.6 452.1,94.8 414.5,64.5 414.5,93.4 402.8,93.4 402.8,42.5 440.4,72.7 440.4,43.6 			"/>
			<path class="st0" d="M56.5,42.2l-42.2,73.1h120.9l-22.4-38.8c12.9-8.4,17.1-25.6,9.3-39.2c-3.9-6.8-10.3-11.6-17.8-13.7
				c-7-1.9-14.4-1.1-20.8,2.1l-8.8-15.2L56.5,42.2z M61.1,50.3l13.6-23.6l46.5,80.7H94L61.1,50.3z M87.5,32.8
				c4.6-2.2,9.7-2.6,14.7-1.3c5.5,1.5,10,5,12.9,9.9c5.6,9.7,2.6,22-6.4,28.2L87.5,32.8z M56.5,58.3l28.3,49H28.2L56.5,58.3z"/>
			<path class="st0" d="M509.9,47.5h1.4c0.7,0,1.1-0.3,1.1-0.9c0-0.3-0.1-0.5-0.3-0.7c-0.2-0.1-0.4-0.2-0.8-0.2h-1.4V47.5z
				 M512.9,47.7c-0.3,0.3-0.7,0.5-1.2,0.6l1.7,2.4l-1,0l-1.7-2.4h-0.9v2.4h-0.9v-5.7h2.4c0.6,0,1,0.1,1.3,0.4
				c0.3,0.3,0.5,0.7,0.5,1.2C513.3,47,513.1,47.4,512.9,47.7 M513.3,51.7c0.7-0.4,1.2-0.9,1.6-1.6c0.3-0.7,0.5-1.5,0.5-2.3
				c0-0.9-0.2-1.6-0.5-2.3c-0.3-0.7-0.9-1.2-1.6-1.6c-0.7-0.4-1.4-0.6-2.3-0.6c-1.3,0-2.4,0.4-3.2,1.3c-0.8,0.9-1.2,1.9-1.2,3.2
				c0,0.9,0.2,1.7,0.5,2.3c0.3,0.7,0.9,1.2,1.6,1.7c0.7,0.4,1.4,0.6,2.3,0.6C511.9,52.3,512.6,52.1,513.3,51.7 M513.7,43.2
				c0.8,0.4,1.4,1.1,1.8,1.9c0.4,0.8,0.7,1.7,0.7,2.6c0,1-0.2,1.9-0.7,2.7c-0.4,0.8-1,1.4-1.8,1.9c-0.8,0.4-1.7,0.7-2.6,0.7
				c-1,0-1.9-0.2-2.6-0.7c-0.8-0.4-1.4-1.1-1.8-1.9c-0.4-0.8-0.7-1.7-0.7-2.7c0-1,0.2-1.9,0.7-2.6c0.4-0.8,1-1.4,1.8-1.9
				c0.8-0.4,1.7-0.7,2.6-0.7C512,42.5,512.9,42.8,513.7,43.2"/>
		</g>
	</g>
	<g>
		<path class="st0" d="M153,130.5c0-8.5,6.7-15.4,15-15.4c6.1,0,11.1,3.8,13.4,9.2l-4.8,1.4c-1.6-3.4-4.6-5.7-8.6-5.8
			c-5.8,0-10,4.6-10,10.5c0,5.8,4.2,10.5,10,10.5c4,0,7-2.2,8.6-5.6l4.8,1.3c-2.3,5.4-7.2,9.2-13.4,9.2
			C159.7,145.8,153,138.9,153,130.5z"/>
		<path class="st0" d="M197.2,130.5c0-8.5,6.7-15.4,15-15.4c8.2,0,14.9,6.9,15,15.4c0,8.5-6.7,15.4-15,15.4
			C203.9,145.9,197.2,139,197.2,130.5z M222.1,130.5c0-5.8-4.3-10.6-9.9-10.6c-5.7,0-10,4.8-10,10.6c0,5.8,4.2,10.5,10,10.5
			C217.9,141.1,222.1,136.3,222.1,130.5z"/>
		<path class="st0" d="M242.9,115.4h4.8l11.3,22.9l11.2-22.9h4.9v30.1h-4.8v-20.2l-9.8,20.2h-3l-9.8-20.2v20.2h-4.8V115.4z"/>
		<path class="st0" d="M290.9,115.4h4.8l11.3,22.9l11.2-22.9h4.9v30.1h-4.8v-20.2l-9.8,20.2h-3l-9.8-20.2v20.2h-4.8V115.4z"/>
		<path class="st0" d="M338.9,133.3v-17.9h5v17.9c0,4.9,3.6,7.7,7.3,7.7c3.7,0,7.3-2.8,7.3-7.7v-17.9h5v17.9
			c0,7.6-5.5,12.6-12.3,12.6C344.5,145.9,338.9,141.1,338.9,133.3z"/>
		<path class="st0" d="M379.2,115.4h5l15.3,22.4v-22.4h4.8v30.1h-4.9L384,123.1v22.4h-4.8V115.4z"/>
		<path class="st0" d="M420,115.4h5v30.1h-5V115.4z"/>
		<path class="st0" d="M450.2,120.2h-9.5v-4.8h23.7v4.8h-9.2v25.3h-5V120.2z"/>
		<path class="st0" d="M490.6,135.9l-10.5-20.5h5.4l7.5,14.7l7.5-14.7h5.4l-10.4,20.3v9.8h-5V135.9z"/>
	</g>
</g>
</svg>
