<svg width="128" height="128" viewBox="0 0 128 128" fill="none" xmlns="http://www.w3.org/2000/svg">
<rect width="128" height="128" rx="18" fill="url(#paint0_radial_11669_75715)"/>
<path opacity="0.6" d="M41.7119 62.5549H48.1486L51.3673 56.9807H44.9306L41.7119 62.5549Z" fill="white"/>
<g opacity="0.4">
<path d="M44.9305 56.9807H32.1548L28.9032 62.5549H41.7119L44.9305 56.9807Z" fill="white"/>
<path d="M51.3672 56.9807L48.1486 62.5549H65.1355L68.3871 56.9807H51.3672Z" fill="white"/>
</g>
<path opacity="0.6" d="M35.2744 73.7033H41.7111L44.9298 68.1292H38.4931L35.2744 73.7033Z" fill="white"/>
<g opacity="0.4">
<path d="M38.4931 68.1292H25.6516L22.4 73.7033H35.2745L38.4931 68.1292Z" fill="white"/>
<path d="M44.9298 68.1292L41.7112 73.7033H71.6387L74.8904 68.1292H44.9298Z" fill="white"/>
</g>
<path opacity="0.6" d="M95.8925 79.2773H89.4558L92.6745 84.8515H99.1112L95.8925 79.2773Z" fill="white"/>
<g opacity="0.4">
<path d="M89.4559 79.2773H74.8903L71.6387 84.8515H92.6745L89.4559 79.2773Z" fill="white"/>
<path d="M95.8926 79.2773L99.1112 84.8515H108.783L112.034 79.2773H95.8926Z" fill="white"/>
</g>
<path d="M95.8925 79.2774L63.9742 24L44.9306 56.9806H51.3673L63.9742 35.1474L95.8931 90.4258H32.0554L48.1486 62.5548H41.7119L38.4933 68.129H44.9298L41.7112 73.7032H35.2746L22.4 96H105.548L99.1111 84.8516H92.6746L89.4559 79.2774H95.8925Z" fill="white"/>
<path d="M90.1165 69.2739C95.6113 65.6794 99.2417 59.4711 99.2417 52.4148C99.2417 41.2966 90.2286 32.2835 79.1104 32.2835C75.8355 32.2835 72.7433 33.0655 70.0102 34.453L72.8038 39.2911C74.7119 38.3725 76.851 37.8577 79.1104 37.8577C87.1501 37.8577 93.6675 44.3752 93.6675 52.4148C93.6675 57.4078 91.1538 61.8136 87.3229 64.4359L90.1165 69.2739Z" fill="white"/>
<defs>
<radialGradient id="paint0_radial_11669_75715" cx="0" cy="0" r="1" gradientUnits="userSpaceOnUse" gradientTransform="translate(4.04524 119.469) scale(195.25)">
<stop offset="0.333333" stop-color="#0E5FB5"/>
<stop offset="1" stop-color="#62AEFF"/>
</radialGradient>
</defs>
</svg>
