<svg width="311" height="311" viewBox="0 0 311 311" fill="none" xmlns="http://www.w3.org/2000/svg">
<path d="M275.318 0H35.6823C15.9755 0 0 15.9755 0 35.6823V275.318C0 295.025 15.9755 311 35.6823 311H275.318C295.025 311 311 295.025 311 275.318V35.6823C311 15.9755 295.025 0 275.318 0Z" fill="url(#paint0_radial_1883_12099)"/>
<path opacity="0.5" d="M225.53 175.504L227.246 174.37C236.037 168.56 242.498 159.751 245.446 149.569C248.774 138.074 247.424 125.974 241.645 115.503C235.865 105.029 226.357 97.4298 214.87 94.1112C211.078 93.0141 207.177 92.4181 203.267 92.3414C196.761 92.2149 190.142 93.574 184.132 96.2739L183.062 96.7571L153.647 42.2109L42.1704 248.927H265.123L225.53 175.508V175.504ZM188.913 105.859C193.356 103.922 198.246 102.952 203.055 103.046C206.035 103.105 209.014 103.557 211.913 104.392C220.623 106.893 227.856 112.668 232.276 120.646C236.674 128.611 237.703 137.817 235.17 146.567C232.94 154.283 228.276 160.735 221.679 165.214L220.433 166.058L188.15 106.193L188.909 105.864L188.913 105.859ZM153.651 65.1292L245.586 238.272H61.7115L153.647 65.1292H153.651Z" fill="white"/>
<path d="M179.491 217.489H277.684L288.678 205.132H190.48L179.491 217.489Z" fill="white"/>
<path d="M22.3223 193.275H167.02L178.014 180.913H33.3119L22.3223 193.275Z" fill="white"/>
<path d="M55.8057 157.611H158.112L169.101 145.791H66.7998L55.8057 157.611Z" fill="white"/>
<defs>
<radialGradient id="paint0_radial_1883_12099" cx="0" cy="0" r="1" gradientUnits="userSpaceOnUse" gradientTransform="translate(299.026 8.2038) scale(445.765)">
<stop stop-color="#F0B336"/>
<stop offset="0.36" stop-color="#AA7F26"/>
<stop offset="0.78" stop-color="#606C86"/>
</radialGradient>
</defs>
</svg>
