<svg width="268" height="268" viewBox="0 0 268 268" fill="none" xmlns="http://www.w3.org/2000/svg">
<path d="M236.74 0.52002H30.9603C14.0383 0.52002 0.320312 14.238 0.320312 31.16V236.94C0.320312 253.862 14.0383 267.58 30.9603 267.58H236.74C253.662 267.58 267.38 253.862 267.38 236.94V31.16C267.38 14.238 253.662 0.52002 236.74 0.52002Z" fill="url(#paint0_radial_891_12931)"/>
<path d="M109.18 215.98L94.64 189.82L107.67 166.34L96.05 145.32H69.5L55 119.51L69.25 93.44H99.69L112.46 116.57H135.73L149.02 93.23H179.08L193.29 119.06L180.28 142.62L192.24 163.62L219.04 163.69L233.28 189.59L218.94 215.64L189.18 215.61L175.56 192H152.42C152.42 192 140.34 213.24 138.78 215.97H109.18V215.98ZM101.99 192.6L112.21 210.57H132.64L122.37 192.53L101.99 192.6ZM224.25 192.44C222.7 192.46 221.21 192.47 219.72 192.48L214.26 192.53C211.43 192.55 208.6 192.58 205.77 192.59H205.34L205.13 192.97C202.59 197.46 200.04 201.95 197.48 206.44L195.26 210.34H215.69L215.9 209.96C217.91 206.39 219.95 202.82 221.99 199.24L221.92 199.28C222.14 198.97 222.47 198.39 223.11 197.27L225.87 192.42H224.25V192.44ZM126.92 189.69L137.27 207.83L147.68 189.57L137.48 171.69L126.92 189.69ZM180.38 189.66L190.61 207.59L200.7 189.9L190.47 171.96L180.38 189.66ZM101.97 187.19L119.23 187.1L118.6 185.99C118.6 185.99 113.84 177.64 111.44 173.42L110.63 171.99L101.98 187.19H101.97ZM208.46 187.15L225.89 187L225.27 185.9C223.27 182.32 219.94 176.49 217.86 172.92L217.21 171.8L208.46 187.16V187.15ZM155.36 186.63H175.66L185.88 168.66H166.16L155.37 186.63H155.36ZM203.79 184.45L212.57 169.02H195L203.79 184.45ZM115.7 169.77C116.35 170.93 117.16 172.39 118.03 173.95C119.79 177.13 121.79 180.73 123.2 183.14L123.85 184.24L124.5 183.14C125.93 180.7 132.27 169.78 132.27 169.78L132.92 168.66H115.08L115.71 169.78L115.7 169.77ZM150.67 183.98L159.85 168.65C159.85 168.65 155.13 168.65 153.43 168.65H141.96L150.66 183.98H150.67ZM115.97 161.8L115.1 163.55L135.72 163.29L145.96 145.29H124.13C124.13 145.29 118.63 156.43 115.97 161.8ZM166.15 163.25H185.87L185.23 162.13C182.1 156.64 178.98 151.17 175.87 145.68L175.66 145.3H155.38L166.15 163.25ZM150.01 149.01C147.92 152.62 144.59 158.51 142.58 162.13L141.96 163.24H143.23C148.34 163.23 153.43 163.23 158.52 163.23H159.84L150.63 147.91L149.99 149.01H150.01ZM110.59 160.53L118.11 145.34H102.21L110.59 160.53ZM75.65 139.9L92.94 139.85L84.29 124.68L75.65 139.9ZM155.94 139.87H175.67L185.71 121.9H166.2L155.94 139.87ZM124.11 139.87H145.97L135.76 121.91H115.24L124.11 139.87ZM102.31 139.84H118.09L110.77 124.96L102.31 139.84ZM141.95 121.98L150.93 137.77L159.98 121.91L141.94 121.99L141.95 121.98ZM60.81 119.24L71.01 137.15L81.24 119.21L71.01 101.29L60.81 119.25V119.24ZM97.62 137.13L106.27 121.94H88.97L97.62 137.13ZM85.89 116.53H106.3L96.08 98.56H75.68L85.89 116.53ZM166.16 116.5H185.89L175.68 98.56H155.4L166.16 116.5ZM141.97 116.47H159.86L150.68 101.17L141.97 116.47Z" fill="white"/>
<g opacity="0.5">
<path d="M103.8 92.6801L133 42.1201L160.23 89.2401H149.47L133 60.7101L109.04 102.21L103.8 92.6801Z" fill="white"/>
<path d="M81.84 149.31L50.53 203.54H97.6899L102.97 212.84H34.4199L71.0999 149.32L81.84 149.31Z" fill="white"/>
<path d="M223.99 212.88L227.57 205.93L231.46 212.88H223.99Z" fill="white"/>
<path d="M145.16 212.84H183.07L177.71 203.54H150.45L145.16 212.84Z" fill="white"/>
<path d="M187.54 137.74L184.81 142.7L195.32 161.04L201.13 161.05L187.54 137.74Z" fill="white"/>
</g>
<defs>
<radialGradient id="paint0_radial_891_12931" cx="0" cy="0" r="1" gradientUnits="userSpaceOnUse" gradientTransform="translate(253.54 10.65) scale(335.7)">
<stop offset="0.08" stop-color="#127AE8"/>
<stop offset="0.18" stop-color="#1173DD"/>
<stop offset="0.36" stop-color="#1060C0"/>
<stop offset="0.59" stop-color="#0F4292"/>
<stop offset="0.86" stop-color="#0E1A53"/>
</radialGradient>
</defs>
</svg>
