<svg width="200" height="174" viewBox="0 0 200 174" fill="none" xmlns="http://www.w3.org/2000/svg">
<path d="M75.18 173.98L60.64 147.82L73.67 124.34L62.05 103.32H35.5L21 77.51L35.25 51.44H65.69L78.46 74.57H101.73L115.02 51.23H145.08L159.29 77.06L146.28 100.62L158.24 121.62L185.04 121.69L199.28 147.59L184.94 173.64L155.18 173.61L141.56 150H118.42C118.42 150 106.34 171.24 104.78 173.97H75.18V173.98ZM67.99 150.6L78.21 168.57H98.64L88.37 150.53L67.99 150.6ZM190.25 150.44C188.7 150.46 187.21 150.47 185.72 150.48L180.26 150.53C177.43 150.55 174.6 150.58 171.77 150.59H171.34L171.13 150.97C168.59 155.46 166.04 159.95 163.48 164.44L161.26 168.34H181.69L181.9 167.96C183.91 164.39 185.95 160.82 187.99 157.24L187.92 157.28C188.14 156.97 188.47 156.39 189.11 155.27L191.87 150.42H190.25V150.44ZM92.92 147.69L103.27 165.83L113.68 147.57L103.48 129.69L92.92 147.69ZM146.38 147.66L156.61 165.59L166.7 147.9L156.47 129.96L146.38 147.66ZM67.97 145.19L85.23 145.1L84.6 143.99C84.6 143.99 79.84 135.64 77.44 131.42L76.63 129.99L67.98 145.19H67.97ZM174.46 145.15L191.89 145L191.27 143.9C189.27 140.32 185.94 134.49 183.86 130.92L183.21 129.8L174.46 145.16V145.15ZM121.36 144.63H141.66L151.88 126.66H132.16L121.37 144.63H121.36ZM169.79 142.45L178.57 127.02H161L169.79 142.45ZM81.7 127.77C82.35 128.93 83.16 130.39 84.03 131.95C85.79 135.13 87.79 138.73 89.2 141.14L89.85 142.24L90.5 141.14C91.93 138.7 98.27 127.78 98.27 127.78L98.92 126.66H81.08L81.71 127.78L81.7 127.77ZM116.67 141.98L125.85 126.65C125.85 126.65 121.13 126.65 119.43 126.65H107.96L116.66 141.98H116.67ZM81.97 119.8L81.1 121.55L101.72 121.29L111.96 103.29H90.13C90.13 103.29 84.63 114.43 81.97 119.8ZM132.15 121.25H151.87L151.23 120.13C148.1 114.64 144.98 109.17 141.87 103.68L141.66 103.3H121.38L132.15 121.25ZM116.01 107.01C113.92 110.62 110.59 116.51 108.58 120.13L107.96 121.24H109.23C114.34 121.23 119.43 121.23 124.52 121.23H125.84L116.63 105.91L115.99 107.01H116.01ZM76.59 118.53L84.11 103.34H68.21L76.59 118.53ZM41.65 97.9L58.94 97.85L50.29 82.68L41.65 97.9ZM121.94 97.87H141.67L151.71 79.9H132.2L121.94 97.87ZM90.11 97.87H111.97L101.76 79.91H81.24L90.11 97.87ZM68.31 97.84H84.09L76.77 82.96L68.31 97.84ZM107.95 79.98L116.93 95.77L125.98 79.91L107.94 79.99L107.95 79.98ZM26.81 77.24L37.01 95.15L47.24 77.21L37.01 59.29L26.81 77.25V77.24ZM63.62 95.13L72.27 79.94H54.97L63.62 95.13ZM51.89 74.53H72.3L62.08 56.56H41.68L51.89 74.53ZM132.16 74.5H151.89L141.68 56.56H121.4L132.16 74.5ZM107.97 74.47H125.86L116.68 59.17L107.97 74.47Z" fill="white"/>
<g opacity="0.5">
<path d="M69.7998 50.6801L98.9998 0.120117L126.23 47.2401H115.47L98.9998 18.7101L75.0398 60.2101L69.7998 50.6801Z" fill="white"/>
<path d="M47.84 107.31L16.53 161.54H63.6899L68.9699 170.84H0.419922L37.0999 107.32L47.84 107.31Z" fill="white"/>
<path d="M189.99 170.88L193.57 163.93L197.46 170.88H189.99Z" fill="white"/>
<path d="M111.16 170.84H149.07L143.71 161.54H116.45L111.16 170.84Z" fill="white"/>
<path d="M153.54 95.7402L150.81 100.7L161.32 119.04L167.13 119.05L153.54 95.7402Z" fill="white"/>
</g>
</svg>
