<svg width="650" height="573" viewBox="0 0 650 573" fill="none" xmlns="http://www.w3.org/2000/svg">
<path d="M467.114 255.528C517.134 222.832 533.501 156.138 503.23 103.72C488.063 77.4279 463.545 58.5983 434.213 50.7357C407.038 43.4399 378.654 46.4233 353.672 59.0444L319.563 0L248.762 122.624L85.1143 406.034H554.012L467.114 255.528ZM426.193 80.7737C447.513 86.4523 465.255 100.142 476.306 119.204C498.026 156.78 486.743 204.439 451.519 228.51L369.249 86.0341C386.972 77.5115 406.964 75.6527 426.193 80.7737ZM319.563 62.2323L500.089 374.909H394.463L266.727 153.74L319.554 62.2416L319.563 62.2323ZM139.038 374.909L248.753 184.922L358.468 374.909H139.038Z" fill="url(#paint0_linear_7_1519)"/>
<path d="M36.172 542.696H20.5582V570.726H0V477.266H38.1888C60.485 477.266 73.9705 490.473 73.9705 509.572V509.832C73.9705 531.459 57.1485 542.677 36.1906 542.677L36.1627 542.705L36.172 542.696ZM53.1149 509.981C53.1149 500.761 46.7114 495.826 36.423 495.826H20.5303V524.396H36.8133C47.1017 524.396 53.0963 518.252 53.0963 510.241V509.981H53.1242H53.1149Z" fill="white"/>
<path d="M85.4392 570.726V477.266H155.934V495.566H105.867V514.535H149.921V532.835H105.867V552.463H156.603V570.763H85.4392V570.717V570.726Z" fill="white"/>
<path d="M229.43 570.726L209.411 540.827H193.258V570.726H172.7V477.266H215.424C237.46 477.266 250.676 488.884 250.676 508.113V508.373C250.676 523.448 242.535 532.946 230.657 537.351L253.492 570.735H229.43V570.726ZM229.839 509.191C229.839 500.389 223.696 495.826 213.686 495.826H193.258V522.648H214.095C224.105 522.648 229.839 517.295 229.839 509.442V509.182V509.191Z" fill="white"/>
<path d="M308.271 572.334C280.779 572.334 260.351 551.116 260.351 524.266V524.005C260.351 497.434 280.37 475.677 309.089 475.677C326.701 475.677 337.268 481.541 345.948 490.092L332.872 505.166C325.65 498.614 318.336 494.618 308.968 494.618C293.224 494.618 281.857 507.694 281.857 523.726V523.987C281.857 540.009 292.945 553.346 308.968 553.346C319.646 553.346 326.199 549.071 333.541 542.389L346.617 555.595C336.989 565.884 326.319 572.287 308.299 572.287L308.271 572.343V572.334Z" fill="white"/>
<path d="M400.876 572.334C372.027 572.334 351.348 550.828 351.348 524.266V524.005C351.348 497.434 372.316 475.677 401.136 475.677C429.957 475.677 450.663 497.183 450.663 523.745V524.005C450.663 550.577 429.696 572.334 400.876 572.334ZM429.185 524.005C429.185 507.983 417.438 494.646 400.876 494.646C384.314 494.646 372.845 507.722 372.845 523.754V524.015C372.845 540.037 384.593 553.374 401.155 553.374C417.716 553.374 429.185 540.298 429.185 524.266V524.005Z" fill="white"/>
<path d="M551.057 476.597V569.388L482.839 516.505V569.239H461.621V476.476L529.839 529.359V476.606H551.066L551.057 476.597Z" fill="white"/>
<path d="M560.564 569.388L605.277 476.597L650 569.388H627.165V569.258L605.277 523.875L583.399 569.416H560.564V569.388Z" fill="white"/>
<defs>
<linearGradient id="paint0_linear_7_1519" x1="138" y1="415" x2="486" y2="67.0001" gradientUnits="userSpaceOnUse">
<stop stop-color="#FC3519"/>
<stop offset="1" stop-color="#F0D136"/>
</linearGradient>
</defs>
</svg>
