<svg width="199" height="176" viewBox="0 0 199 176" fill="none" xmlns="http://www.w3.org/2000/svg">
<path d="M42.8301 175.09L31.1201 154.92L51.7001 119.29L41.4201 101.42L73.3301 45.6401H97.2101L117.46 81.3101H138.06L170.27 137.1L158.59 157.25H117.46L107.18 175.08H42.8301V175.09ZM45.3901 170.48H101.84L94.2101 157.25H37.7501L45.3901 170.48ZM98.2001 154.95L105.83 168.18L123.76 137.12L116.12 123.89L98.1901 154.95H98.2001ZM120.12 152.64H153.32L125.09 103.75H89.2301L96.8701 116.98H117.49L129.08 137.11L120.12 152.65V152.64ZM37.7501 152.64H94.2101L112.14 121.58H96.8701L86.5601 139.42H63.3201L54.3601 123.88L37.7601 152.63L37.7501 152.64ZM129.08 101.45L157.31 150.34L164.94 137.12L136.71 88.2301L129.08 101.45ZM65.9701 134.81H81.2501L63.3201 103.75H48.0501L65.9801 134.81H65.9701ZM67.3001 101.45L85.2301 132.51L92.8601 119.28L82.5601 101.45L94.2802 81.3001H112.13L95.5302 52.5501L67.3001 101.44V101.45ZM89.2201 99.1501H125.08L132.71 85.9301H96.8501L89.2101 99.1501H89.2201ZM48.0401 99.1501H63.3101L91.5401 50.2601H76.2701L48.0401 99.1501Z" fill="white"/>
<path opacity="0.5" d="M182.57 163.26L172.9 146.52L174.64 143.53L174.76 143.32L178.36 137.11L198.9 172.68H116.62L122.1 163.26H182.57Z" fill="white"/>
<path opacity="0.5" d="M88.3199 38.64L99.4699 19.32L131.31 74.48H142.19L99.4699 0.47998L77.4299 38.64H88.3199Z" fill="white"/>
<path opacity="0.5" d="M27.73 163.26H16.36L42.6301 117.77L37.2001 108.31L0.0400391 172.68H33.2501L27.73 163.26Z" fill="white"/>
</svg>
