<svg width="199" height="184" viewBox="0 0 199 184" fill="none" xmlns="http://www.w3.org/2000/svg">
<g opacity="0.5">
<path d="M47.1201 163.51H16.4301L32.0901 136.4V117.55L0.100098 172.94H64.5501L47.1201 163.51Z" fill="white"/>
</g>
<g opacity="0.5">
<path d="M173.21 128.33L166.97 117.53V136.38L182.63 163.51H151.79L134.36 172.94H198.96L173.21 128.33Z" fill="white"/>
</g>
<g opacity="0.5">
<path d="M85.33 44.18L99.53 19.58L113.61 43.97L129.43 52.51L99.53 0.73999L69.51 52.73L85.33 44.18Z" fill="white"/>
</g>
<path d="M39.24 151.09V130.49L44.77 127.46L39.24 124.44V103.76L44.77 100.77L39.24 97.8201V77.0801L99.53 44.5801L159.82 77.0601V97.7701L154.29 100.76L159.82 103.76V123.01C159.82 123.92 159.32 124.74 158.53 125.17L154.29 127.45L159.83 130.36V151.17L99.48 183.58L39.25 151.08L39.24 151.09ZM101.99 164.51V176.72L154.9 148.23V136.02L101.99 164.51ZM44.16 148.23L97.07 176.72V164.51L44.16 136.02V148.23ZM46.89 131.9L99.54 160.25L152.19 131.9L149.11 130.24L99.45 156.85L49.97 130.24L46.89 131.9ZM101.99 137.82V150.03L154.9 121.54V109.33L101.99 137.82ZM44.16 121.54L97.07 150.03V137.82L44.16 109.33V121.54ZM46.89 105.21L99.54 133.56L152.19 105.21L149.11 103.55L99.54 130.17L49.97 103.55L46.89 105.21ZM101.99 111.13V123.34L154.9 94.8501V82.6401L101.99 111.13ZM44.16 94.8501L97.07 123.34V111.13L44.16 82.6401V94.8501ZM46.89 78.5201L99.54 106.87L152.19 78.5201L99.54 50.1701L46.89 78.5201Z" fill="white"/>
</svg>
