<svg width="268" height="268" viewBox="0 0 268 268" fill="none" xmlns="http://www.w3.org/2000/svg">
<path d="M237.33 0H31.5502C14.6282 0 0.910156 13.718 0.910156 30.64V236.42C0.910156 253.342 14.6282 267.06 31.5502 267.06H237.33C254.252 267.06 267.97 253.342 267.97 236.42V30.64C267.97 13.718 254.252 0 237.33 0Z" fill="url(#paint0_radial_891_12911)"/>
<g opacity="0.5">
<path d="M93.0602 208.09L108.76 180.83L138.24 231.89L172.94 171.79L184.83 192.45L220.4 136.35L214.63 130.65H52.6302L48.4702 136.41L93.0502 208.09H93.0602ZM211.96 135.16L184.84 178.33L177.01 164.77L193.78 135.16H211.97H211.96ZM172.61 157.15L159.94 135.16H184.74L172.61 157.15ZM151.64 135.16L168.56 164.17L138.25 216.67L113.16 173.21L135.06 135.16H151.64ZM109.22 166.39L90.9603 135.16H126.91L109.22 166.39ZM82.0602 135.16L104.83 174.01L93.0803 194.37L55.0602 135.16H82.0703H82.0602Z" fill="white"/>
</g>
<path d="M203.56 107.16C206.75 104.36 209.07 100.65 210.19 96.4999C211.69 90.8999 210.931 85.0399 208.031 80.0199C205.131 74.9999 200.45 71.3999 194.85 69.8999C193 69.3999 191.101 69.1499 189.211 69.1499C186.891 69.1499 184.561 69.5399 182.341 70.2899L175.82 58.9599L160.12 86.2199L130.641 35.1599L95.9405 95.2599L84.0505 74.5999L48.4805 136.4H220.41L203.57 107.15L203.56 107.16ZM189.201 76.0199C190.501 76.0199 191.801 76.1899 193.081 76.5299C196.901 77.5499 200.101 79.9999 202.091 83.4399C204.071 86.8699 204.6 90.8799 203.57 94.7099C202.921 97.1299 201.71 99.2799 200.04 101.04L185.86 76.4099C186.96 76.1499 188.081 76.0199 189.201 76.0199ZM60.7105 129.34L84.0405 88.7299L91.8705 102.29L76.3705 129.34H60.7105ZM96.2705 109.91L107.17 129.34H85.3705L96.2705 109.91ZM115.22 129.34L100.32 102.9L130.63 50.3999L155.72 93.8599L135.6 129.35H115.22V129.34ZM159.66 100.67L175.901 129.34H143.43L159.67 100.67H159.66ZM185.01 129.34L164.06 93.0499L175.81 72.6899L208.51 129.33H185L185.01 129.34Z" fill="white"/>
<defs>
<radialGradient id="paint0_radial_891_12911" cx="0" cy="0" r="1" gradientUnits="userSpaceOnUse" gradientTransform="translate(5.46015 257.34) scale(351.67)">
<stop offset="0.22" stop-color="#AC3100"/>
<stop offset="0.96" stop-color="#FF7E1A"/>
</radialGradient>
</defs>
</svg>
