<svg width="199" height="189" viewBox="0 0 199 189" fill="none" xmlns="http://www.w3.org/2000/svg">
<path d="M105.43 188.8L184.4 103.36L144.41 57.8799L89.0801 43.3999L62.5602 60.3999L19.9202 103.4L105.44 188.8H105.43ZM142.97 63.2099L173.41 97.9999L124.59 87.3699L122.04 77.1699L138.17 66.4199L142.97 63.2199V63.2099ZM92.2002 72.0799L116.69 78.1999L118.66 86.0699L92.2002 80.3099V72.0799ZM89.5501 85.0899L120.07 91.7399L128.81 126.69L33.2602 102.8L89.5501 85.0899ZM126.02 93.0699V93.0299L175.04 103.71L134.34 126.32L126.03 93.0699H126.02ZM129.34 65.7499L118.43 73.0299L92.2002 66.4699V49.6099L136.82 60.7699L129.35 65.7499H129.34ZM86.9601 50.6199V65.1599L71.1002 61.1899L86.9601 50.6099V50.6199ZM65.3001 65.3599L86.9601 70.7799V80.4299L33.3902 97.2799L65.3001 65.3699V65.3599ZM104.57 180.31L32.4901 108.23L128.6 132.26L104.57 180.31ZM115.25 171.13L134.61 132.41L169.33 112.33L115.25 171.12V171.13Z" fill="white"/>
<path opacity="0.5" d="M172.34 126.75L165.6 133.95L182.6 163.39H138.05L129.23 172.81H198.93L172.34 126.75Z" fill="white"/>
<path opacity="0.5" d="M70.8101 163.39H16.4001L36.3101 128.89L29.4101 121.99L0.0700684 172.81H80.2301L70.8101 163.39Z" fill="white"/>
<path opacity="0.5" d="M91.55 33.2199L99.5001 19.4499L112.81 42.4999L125.52 45.6799L99.5001 0.609863L73.8201 45.0899L91.55 33.2199Z" fill="white"/>
</svg>
