<svg width="268" height="268" viewBox="0 0 268 268" fill="none" xmlns="http://www.w3.org/2000/svg">
<path d="M237 0.679932H31.2201C14.2981 0.679932 0.580078 14.3979 0.580078 31.3199V237.1C0.580078 254.022 14.2981 267.74 31.2201 267.74H237C253.922 267.74 267.64 254.022 267.64 237.1V31.3199C267.64 14.3979 253.922 0.679932 237 0.679932Z" fill="url(#paint0_radial_891_12941)"/>
<path fill-rule="evenodd" clip-rule="evenodd" d="M199.61 115.77L134.11 85.72L68.6099 115.77V193.38C68.6099 194.34 69.1399 195.23 69.9799 195.68L134.07 230.43L199.6 194.93V115.78L199.61 115.77ZM134.12 190.49L105.92 177.48L134.12 162.3L162.32 177.48L134.12 190.49ZM102.68 173.27V134.8L131.5 121.5V157.76L123.16 162.25L102.68 173.28V173.27ZM136.74 157.75V121.49L165.56 134.79V173.26L136.74 157.74V157.75ZM134.12 91.46L191.15 117.6L168.08 130.18L134.09 114.52L100.16 130.18L77.0899 117.6L134.12 91.46ZM73.8599 191.81V121.81L97.4399 134.67V179.44L131.5 195.05V223.03L73.8599 191.81ZM194.37 191.81L136.73 223.03V195.05L170.78 179.28V134.68L172.1 133.96L194.36 121.82V191.82L194.37 191.81Z" fill="white"/>
<g opacity="0.5">
<path d="M134.11 62.07L147.09 84.54L161.89 91.33L134.11 43.23L106.36 91.29L121.16 84.51L134.11 62.07Z" fill="white"/>
<path d="M217.22 206.01H192.5L175.1 215.43H233.54L206.08 167.87L206.09 186.73L217.22 206.01Z" fill="white"/>
<path d="M51.0097 206.01L62.1397 186.74V167.89L34.6797 215.43H92.9397L75.5497 206.01H51.0097Z" fill="white"/>
</g>
<defs>
<radialGradient id="paint0_radial_891_12941" cx="0" cy="0" r="1" gradientUnits="userSpaceOnUse" gradientTransform="translate(257.36 7.72994) scale(382.79)">
<stop offset="0.05" stop-color="#F0B336"/>
<stop offset="0.88" stop-color="#84621E"/>
</radialGradient>
</defs>
</svg>
