<?xml version="1.0" encoding="UTF-8"?>
<svg id="Layer_12" data-name="Layer 12" xmlns="http://www.w3.org/2000/svg" viewBox="0 0 1123.51 1123.51">
  <defs>
    <style>
      .cls-1 {
        fill: #2aa6df;
      }
    </style>
  </defs>
  <g id="Layer_1" data-name="Layer 1">
    <g>
      <g>
        <path class="cls-1" d="M913.53,728.7H209.98L561.75,119.41l351.78,609.29ZM229.21,717.6h665.09L561.75,141.61,229.21,717.6Z"/>
        <g>
          <path class="cls-1" d="M374.14,595.89l21.07,56.11h307.31l46.57-56.11h-374.95Z"/>
          <polyline class="cls-1" points="410.21 576.15 509.8 401.15 523.07 424.05 436.25 576.15"/>
          <polygon class="cls-1" points="592.55 521.95 623.84 576.15 724.48 576.15 592.55 347.65 460.63 576.15 561.26 576.15 592.55 521.95"/>
          <polygon class="cls-1" points="500.57 347.65 534.14 405.8 567.72 347.65 500.57 347.65"/>
        </g>
      </g>
      <g>
        <path class="cls-1" d="M365.19,976.75c-4.93-2.75-8.85-6.59-11.74-11.52-2.9-4.93-4.35-10.47-4.35-16.63s1.45-11.69,4.35-16.59c2.9-4.9,6.81-8.73,11.74-11.48,4.93-2.75,10.35-4.12,16.27-4.12s11.34,1.38,16.27,4.12c4.93,2.75,8.82,6.58,11.65,11.48,2.84,4.9,4.26,10.43,4.26,16.59s-1.43,11.7-4.3,16.63c-2.87,4.93-6.75,8.77-11.66,11.52-4.9,2.75-10.31,4.12-16.23,4.12s-11.34-1.37-16.27-4.12ZM393.52,961.87c3.02-3.35,4.53-7.77,4.53-13.27s-1.51-10-4.53-13.32c-3.02-3.32-7.04-4.98-12.06-4.98s-9.13,1.65-12.15,4.93c-3.02,3.29-4.53,7.74-4.53,13.36s1.51,9.99,4.53,13.31c3.02,3.32,7.07,4.98,12.15,4.98s9.04-1.67,12.06-5.02Z"/>
        <path class="cls-1" d="M439.1,931.66c2.63-1.43,5.71-2.15,9.23-2.15,4.12,0,7.86,1.05,11.21,3.14,3.35,2.09,5.99,5.08,7.93,8.97,1.94,3.89,2.91,8.4,2.91,13.54s-.97,9.67-2.91,13.58c-1.94,3.92-4.59,6.93-7.93,9.06-3.35,2.12-7.08,3.18-11.21,3.18-3.47,0-6.53-.72-9.19-2.15-2.66-1.43-4.74-3.29-6.23-5.56v30.84h-15.33v-73.87h15.33v7.08c1.49-2.33,3.56-4.21,6.19-5.65ZM451.61,946.14c-2.12-2.18-4.74-3.27-7.84-3.27s-5.63,1.11-7.75,3.32c-2.12,2.21-3.18,5.23-3.18,9.06s1.06,6.84,3.18,9.05c2.12,2.21,4.71,3.32,7.75,3.32s5.65-1.12,7.8-3.36c2.15-2.24,3.23-5.27,3.23-9.1s-1.06-6.83-3.18-9.01Z"/>
        <path class="cls-1" d="M520.78,958.91h-34.7c.24,3.11,1.24,5.48,3,7.13,1.76,1.64,3.93,2.47,6.5,2.47,3.82,0,6.48-1.62,7.98-4.84h16.32c-.84,3.29-2.35,6.25-4.53,8.88-2.18,2.63-4.92,4.69-8.2,6.19-3.29,1.49-6.96,2.24-11.03,2.24-4.9,0-9.27-1.04-13.09-3.14-3.83-2.09-6.81-5.08-8.97-8.97-2.15-3.88-3.23-8.43-3.23-13.63s1.06-9.74,3.18-13.63c2.12-3.88,5.09-6.87,8.92-8.97,3.82-2.09,8.22-3.14,13.18-3.14s9.14,1.02,12.91,3.05c3.77,2.03,6.71,4.93,8.83,8.7,2.12,3.77,3.18,8.16,3.18,13.18,0,1.43-.09,2.93-.27,4.48ZM505.36,950.4c0-2.63-.9-4.72-2.69-6.27-1.79-1.56-4.03-2.33-6.72-2.33s-4.74.75-6.5,2.24c-1.76,1.5-2.86,3.62-3.27,6.36h19.19Z"/>
        <path class="cls-1" d="M546.6,932.06c2.69-1.58,5.68-2.37,8.97-2.37v16.23h-4.21c-3.83,0-6.69.82-8.61,2.47-1.91,1.64-2.87,4.53-2.87,8.65v23.22h-15.33v-50.03h15.33v8.34c1.79-2.75,4.03-4.92,6.72-6.5Z"/>
        <path class="cls-1" d="M558.21,941.61c1.94-3.88,4.59-6.87,7.93-8.97,3.35-2.09,7.08-3.14,11.21-3.14,3.53,0,6.62.72,9.28,2.15,2.66,1.44,4.71,3.32,6.14,5.65v-7.08h15.33v50.03h-15.33v-7.08c-1.49,2.33-3.57,4.21-6.23,5.65-2.66,1.44-5.75,2.15-9.28,2.15-4.07,0-7.77-1.06-11.12-3.18-3.35-2.12-5.99-5.14-7.93-9.06-1.94-3.91-2.91-8.44-2.91-13.58s.97-9.65,2.91-13.54ZM589.58,946.18c-2.12-2.21-4.71-3.32-7.76-3.32s-5.63,1.09-7.76,3.27c-2.12,2.18-3.18,5.19-3.18,9.01s1.06,6.86,3.18,9.1c2.12,2.24,4.71,3.36,7.76,3.36s5.63-1.1,7.76-3.32c2.12-2.21,3.18-5.23,3.18-9.05s-1.06-6.84-3.18-9.06Z"/>
        <path class="cls-1" d="M642.52,967.25v13h-7.8c-5.56,0-9.89-1.36-13-4.08-3.11-2.72-4.66-7.16-4.66-13.31v-19.9h-6.1v-12.73h6.1v-12.19h15.33v12.19h10.04v12.73h-10.04v20.08c0,1.49.36,2.57,1.08,3.23.72.66,1.91.99,3.59.99h5.47Z"/>
        <path class="cls-1" d="M656.02,977.83c-3.92-2.09-6.99-5.08-9.23-8.97-2.24-3.88-3.36-8.43-3.36-13.63s1.13-9.67,3.41-13.58c2.27-3.91,5.38-6.92,9.32-9.01,3.95-2.09,8.37-3.14,13.27-3.14s9.32,1.05,13.27,3.14c3.95,2.09,7.05,5.1,9.32,9.01,2.27,3.92,3.41,8.44,3.41,13.58s-1.15,9.67-3.45,13.58c-2.3,3.92-5.44,6.92-9.41,9.01-3.98,2.09-8.41,3.14-13.31,3.14s-9.31-1.04-13.22-3.14ZM676.73,964.47c2.06-2.15,3.09-5.23,3.09-9.23s-1-7.08-3-9.24c-2-2.15-4.47-3.23-7.4-3.23s-5.47,1.06-7.44,3.18-2.96,5.21-2.96,9.28.97,7.08,2.91,9.23c1.94,2.15,4.38,3.23,7.31,3.23s5.42-1.08,7.49-3.23Z"/>
        <path class="cls-1" d="M721.06,932.06c2.69-1.58,5.68-2.37,8.97-2.37v16.23h-4.21c-3.83,0-6.69.82-8.61,2.47-1.91,1.64-2.87,4.53-2.87,8.65v23.22h-15.33v-50.03h15.33v8.34c1.79-2.75,4.03-4.92,6.72-6.5Z"/>
        <path class="cls-1" d="M741.5,978.73c-3.41-1.49-6.1-3.54-8.07-6.14s-3.08-5.51-3.32-8.74h15.15c.18,1.73.99,3.14,2.42,4.21,1.43,1.08,3.2,1.61,5.29,1.61,1.91,0,3.39-.37,4.44-1.12,1.04-.75,1.57-1.72,1.57-2.91,0-1.43-.75-2.49-2.24-3.18-1.49-.69-3.92-1.45-7.26-2.29-3.59-.84-6.58-1.72-8.96-2.64-2.39-.93-4.45-2.39-6.19-4.39-1.73-2-2.6-4.71-2.6-8.11,0-2.87.79-5.48,2.38-7.84,1.58-2.36,3.91-4.23,6.99-5.61,3.08-1.37,6.74-2.06,10.98-2.06,6.28,0,11.22,1.56,14.84,4.66,3.62,3.11,5.69,7.23,6.23,12.37h-14.17c-.24-1.73-1-3.11-2.29-4.12-1.29-1.01-2.97-1.52-5.07-1.52-1.79,0-3.17.34-4.12,1.03-.96.69-1.43,1.63-1.43,2.82,0,1.44.76,2.51,2.29,3.23,1.52.72,3.9,1.44,7.13,2.15,3.71.96,6.72,1.9,9.05,2.82,2.33.93,4.38,2.42,6.14,4.48,1.76,2.06,2.67,4.83,2.73,8.29,0,2.93-.82,5.55-2.47,7.85-1.64,2.3-4,4.11-7.08,5.42-3.08,1.32-6.65,1.97-10.71,1.97-4.36,0-8.25-.75-11.66-2.24Z"/>
      </g>
      <g>
        <path class="cls-1" d="M365.19,976.75c-4.93-2.75-8.85-6.59-11.74-11.52-2.9-4.93-4.35-10.47-4.35-16.63s1.45-11.69,4.35-16.59c2.9-4.9,6.81-8.73,11.74-11.48,4.93-2.75,10.35-4.12,16.27-4.12s11.34,1.38,16.27,4.12c4.93,2.75,8.82,6.58,11.65,11.48,2.84,4.9,4.26,10.43,4.26,16.59s-1.43,11.7-4.3,16.63c-2.87,4.93-6.75,8.77-11.66,11.52-4.9,2.75-10.31,4.12-16.23,4.12s-11.34-1.37-16.27-4.12ZM393.52,961.87c3.02-3.35,4.53-7.77,4.53-13.27s-1.51-10-4.53-13.32c-3.02-3.32-7.04-4.98-12.06-4.98s-9.13,1.65-12.15,4.93c-3.02,3.29-4.53,7.74-4.53,13.36s1.51,9.99,4.53,13.31c3.02,3.32,7.07,4.98,12.15,4.98s9.04-1.67,12.06-5.02Z"/>
        <path class="cls-1" d="M439.1,931.66c2.63-1.43,5.71-2.15,9.23-2.15,4.12,0,7.86,1.05,11.21,3.14,3.35,2.09,5.99,5.08,7.93,8.97,1.94,3.89,2.91,8.4,2.91,13.54s-.97,9.67-2.91,13.58c-1.94,3.92-4.59,6.93-7.93,9.06-3.35,2.12-7.08,3.18-11.21,3.18-3.47,0-6.53-.72-9.19-2.15-2.66-1.43-4.74-3.29-6.23-5.56v30.84h-15.33v-73.87h15.33v7.08c1.49-2.33,3.56-4.21,6.19-5.65ZM451.61,946.14c-2.12-2.18-4.74-3.27-7.84-3.27s-5.63,1.11-7.75,3.32c-2.12,2.21-3.18,5.23-3.18,9.06s1.06,6.84,3.18,9.05c2.12,2.21,4.71,3.32,7.75,3.32s5.65-1.12,7.8-3.36c2.15-2.24,3.23-5.27,3.23-9.1s-1.06-6.83-3.18-9.01Z"/>
        <path class="cls-1" d="M520.78,958.91h-34.7c.24,3.11,1.24,5.48,3,7.13,1.76,1.64,3.93,2.47,6.5,2.47,3.82,0,6.48-1.62,7.98-4.84h16.32c-.84,3.29-2.35,6.25-4.53,8.88-2.18,2.63-4.92,4.69-8.2,6.19-3.29,1.49-6.96,2.24-11.03,2.24-4.9,0-9.27-1.04-13.09-3.14-3.83-2.09-6.81-5.08-8.97-8.97-2.15-3.88-3.23-8.43-3.23-13.63s1.06-9.74,3.18-13.63c2.12-3.88,5.09-6.87,8.92-8.97,3.82-2.09,8.22-3.14,13.18-3.14s9.14,1.02,12.91,3.05c3.77,2.03,6.71,4.93,8.83,8.7,2.12,3.77,3.18,8.16,3.18,13.18,0,1.43-.09,2.93-.27,4.48ZM505.36,950.4c0-2.63-.9-4.72-2.69-6.27-1.79-1.56-4.03-2.33-6.72-2.33s-4.74.75-6.5,2.24c-1.76,1.5-2.86,3.62-3.27,6.36h19.19Z"/>
        <path class="cls-1" d="M546.6,932.06c2.69-1.58,5.68-2.37,8.97-2.37v16.23h-4.21c-3.83,0-6.69.82-8.61,2.47-1.91,1.64-2.87,4.53-2.87,8.65v23.22h-15.33v-50.03h15.33v8.34c1.79-2.75,4.03-4.92,6.72-6.5Z"/>
        <path class="cls-1" d="M558.21,941.61c1.94-3.88,4.59-6.87,7.93-8.97,3.35-2.09,7.08-3.14,11.21-3.14,3.53,0,6.62.72,9.28,2.15,2.66,1.44,4.71,3.32,6.14,5.65v-7.08h15.33v50.03h-15.33v-7.08c-1.49,2.33-3.57,4.21-6.23,5.65-2.66,1.44-5.75,2.15-9.28,2.15-4.07,0-7.77-1.06-11.12-3.18-3.35-2.12-5.99-5.14-7.93-9.06-1.94-3.91-2.91-8.44-2.91-13.58s.97-9.65,2.91-13.54ZM589.58,946.18c-2.12-2.21-4.71-3.32-7.76-3.32s-5.63,1.09-7.76,3.27c-2.12,2.18-3.18,5.19-3.18,9.01s1.06,6.86,3.18,9.1c2.12,2.24,4.71,3.36,7.76,3.36s5.63-1.1,7.76-3.32c2.12-2.21,3.18-5.23,3.18-9.05s-1.06-6.84-3.18-9.06Z"/>
        <path class="cls-1" d="M642.52,967.25v13h-7.8c-5.56,0-9.89-1.36-13-4.08-3.11-2.72-4.66-7.16-4.66-13.31v-19.9h-6.1v-12.73h6.1v-12.19h15.33v12.19h10.04v12.73h-10.04v20.08c0,1.49.36,2.57,1.08,3.23.72.66,1.91.99,3.59.99h5.47Z"/>
        <path class="cls-1" d="M656.02,977.83c-3.92-2.09-6.99-5.08-9.23-8.97-2.24-3.88-3.36-8.43-3.36-13.63s1.13-9.67,3.41-13.58c2.27-3.91,5.38-6.92,9.32-9.01,3.95-2.09,8.37-3.14,13.27-3.14s9.32,1.05,13.27,3.14c3.95,2.09,7.05,5.1,9.32,9.01,2.27,3.92,3.41,8.44,3.41,13.58s-1.15,9.67-3.45,13.58c-2.3,3.92-5.44,6.92-9.41,9.01-3.98,2.09-8.41,3.14-13.31,3.14s-9.31-1.04-13.22-3.14ZM676.73,964.47c2.06-2.15,3.09-5.23,3.09-9.23s-1-7.08-3-9.24c-2-2.15-4.47-3.23-7.4-3.23s-5.47,1.06-7.44,3.18-2.96,5.21-2.96,9.28.97,7.08,2.91,9.23c1.94,2.15,4.38,3.23,7.31,3.23s5.42-1.08,7.49-3.23Z"/>
        <path class="cls-1" d="M721.06,932.06c2.69-1.58,5.68-2.37,8.97-2.37v16.23h-4.21c-3.83,0-6.69.82-8.61,2.47-1.91,1.64-2.87,4.53-2.87,8.65v23.22h-15.33v-50.03h15.33v8.34c1.79-2.75,4.03-4.92,6.72-6.5Z"/>
        <path class="cls-1" d="M741.5,978.73c-3.41-1.49-6.1-3.54-8.07-6.14s-3.08-5.51-3.32-8.74h15.15c.18,1.73.99,3.14,2.42,4.21,1.43,1.08,3.2,1.61,5.29,1.61,1.91,0,3.39-.37,4.44-1.12,1.04-.75,1.57-1.72,1.57-2.91,0-1.43-.75-2.49-2.24-3.18-1.49-.69-3.92-1.45-7.26-2.29-3.59-.84-6.58-1.72-8.96-2.64-2.39-.93-4.45-2.39-6.19-4.39-1.73-2-2.6-4.71-2.6-8.11,0-2.87.79-5.48,2.38-7.84,1.58-2.36,3.91-4.23,6.99-5.61,3.08-1.37,6.74-2.06,10.98-2.06,6.28,0,11.22,1.56,14.84,4.66,3.62,3.11,5.69,7.23,6.23,12.37h-14.17c-.24-1.73-1-3.11-2.29-4.12-1.29-1.01-2.97-1.52-5.07-1.52-1.79,0-3.17.34-4.12,1.03-.96.69-1.43,1.63-1.43,2.82,0,1.44.76,2.51,2.29,3.23,1.52.72,3.9,1.44,7.13,2.15,3.71.96,6.72,1.9,9.05,2.82,2.33.93,4.38,2.42,6.14,4.48,1.76,2.06,2.67,4.83,2.73,8.29,0,2.93-.82,5.55-2.47,7.85-1.64,2.3-4,4.11-7.08,5.42-3.08,1.32-6.65,1.97-10.71,1.97-4.36,0-8.25-.75-11.66-2.24Z"/>
      </g>
      <g>
        <path class="cls-1" d="M438.68,849.82c-3.12,3.02-7.89,4.53-14.29,4.53h-10.55v22.92h-7.17v-54.89h17.72c6.19,0,10.91,1.5,14.14,4.49,3.23,2.99,4.84,6.85,4.84,11.58s-1.56,8.36-4.69,11.38ZM433.2,845.84c1.89-1.73,2.84-4.2,2.84-7.4,0-6.77-3.89-10.16-11.65-10.16h-10.55v20.16h10.55c3.99,0,6.93-.87,8.82-2.6Z"/>
        <path class="cls-1" d="M490.3,858.36h-34.49c.26,4.25,1.72,7.57,4.37,9.96,2.65,2.39,5.87,3.58,9.65,3.58,3.1,0,5.68-.72,7.76-2.16,2.07-1.44,3.53-3.37,4.37-5.79h7.72c-1.16,4.15-3.46,7.52-6.93,10.12s-7.77,3.9-12.91,3.9c-4.1,0-7.76-.92-10.99-2.76-3.23-1.84-5.76-4.45-7.6-7.84-1.84-3.39-2.76-7.31-2.76-11.77s.89-8.37,2.68-11.73c1.78-3.36,4.29-5.95,7.52-7.76,3.23-1.81,6.94-2.72,11.14-2.72s7.72.89,10.87,2.68c3.15,1.79,5.58,4.24,7.28,7.36,1.71,3.12,2.56,6.65,2.56,10.59,0,1.37-.08,2.81-.24,4.33ZM481.32,845.48c-1.21-1.97-2.85-3.46-4.92-4.49-2.07-1.02-4.37-1.54-6.89-1.54-3.62,0-6.71,1.16-9.25,3.47-2.55,2.31-4,5.51-4.37,9.61h27.25c0-2.73-.6-5.08-1.81-7.05Z"/>
        <path class="cls-1" d="M512.46,835.37c2.34-1.37,5.18-2.05,8.54-2.05v7.4h-1.89c-8.03,0-12.05,4.36-12.05,13.07v23.47h-7.17v-43.15h7.17v7.01c1.26-2.47,3.06-4.38,5.39-5.75Z"/>
        <path class="cls-1" d="M527.94,843.91c1.78-3.33,4.26-5.92,7.44-7.76,3.18-1.84,6.81-2.76,10.91-2.76,5.3,0,9.67,1.29,13.11,3.86,3.44,2.57,5.71,6.14,6.81,10.71h-7.72c-.74-2.62-2.17-4.7-4.29-6.22-2.13-1.52-4.76-2.28-7.91-2.28-4.09,0-7.4,1.41-9.92,4.21-2.52,2.81-3.78,6.79-3.78,11.93s1.26,9.21,3.78,12.05c2.52,2.84,5.83,4.25,9.92,4.25,3.15,0,5.77-.73,7.88-2.2,2.1-1.47,3.54-3.57,4.33-6.3h7.72c-1.16,4.41-3.46,7.94-6.93,10.59s-7.8,3.98-12.99,3.98c-4.09,0-7.73-.92-10.91-2.76-3.18-1.84-5.66-4.44-7.44-7.8-1.79-3.36-2.68-7.3-2.68-11.81s.89-8.36,2.68-11.7Z"/>
        <path class="cls-1" d="M583.1,875.21c-3.28-1.84-5.85-4.45-7.72-7.84-1.86-3.39-2.8-7.31-2.8-11.77s.96-8.31,2.87-11.7c1.92-3.39,4.53-5.98,7.84-7.8,3.31-1.81,7.01-2.72,11.1-2.72s7.8.91,11.1,2.72c3.31,1.81,5.92,4.4,7.84,7.76,1.92,3.36,2.87,7.27,2.87,11.73s-.98,8.39-2.95,11.77-4.63,6-7.99,7.84c-3.36,1.84-7.09,2.76-11.18,2.76s-7.71-.92-10.99-2.76ZM601.33,869.86c2.26-1.21,4.08-3.02,5.47-5.43,1.39-2.41,2.09-5.36,2.09-8.82s-.68-6.4-2.05-8.82c-1.37-2.41-3.15-4.21-5.35-5.39-2.21-1.18-4.59-1.77-7.17-1.77s-5.03.59-7.21,1.77c-2.18,1.18-3.93,2.98-5.24,5.39-1.31,2.42-1.97,5.35-1.97,8.82s.64,6.48,1.93,8.9c1.29,2.42,3,4.21,5.16,5.39,2.15,1.18,4.51,1.77,7.09,1.77s4.99-.6,7.24-1.81Z"/>
        <path class="cls-1" d="M659.21,838.08c3.25,3.18,4.88,7.76,4.88,13.74v25.44h-7.09v-24.41c0-4.3-1.08-7.6-3.23-9.88-2.15-2.28-5.09-3.43-8.82-3.43s-6.79,1.18-9.02,3.54c-2.23,2.36-3.35,5.8-3.35,10.32v23.86h-7.17v-43.15h7.17v6.14c1.42-2.2,3.35-3.91,5.79-5.12,2.44-1.21,5.13-1.81,8.07-1.81,5.25,0,9.5,1.59,12.76,4.77Z"/>
        <path class="cls-1" d="M675.59,843.91c1.78-3.33,4.24-5.92,7.36-7.76,3.12-1.84,6.6-2.76,10.43-2.76s7.06.81,9.84,2.44c2.78,1.63,4.86,3.68,6.22,6.14v-7.87h7.24v43.15h-7.24v-8.03c-1.42,2.52-3.53,4.61-6.34,6.26-2.81,1.65-6.08,2.48-9.8,2.48s-7.3-.95-10.39-2.84c-3.1-1.89-5.54-4.54-7.32-7.95-1.79-3.41-2.68-7.3-2.68-11.66s.89-8.28,2.68-11.62ZM707.48,847.1c-1.31-2.41-3.08-4.26-5.32-5.55-2.23-1.29-4.69-1.93-7.36-1.93s-5.12.63-7.32,1.89c-2.2,1.26-3.96,3.1-5.28,5.51-1.31,2.42-1.97,5.25-1.97,8.5s.66,6.18,1.97,8.62c1.31,2.44,3.07,4.31,5.28,5.59,2.2,1.29,4.65,1.93,7.32,1.93s5.13-.64,7.36-1.93c2.23-1.29,4-3.15,5.32-5.59,1.31-2.44,1.97-5.29,1.97-8.54s-.66-6.09-1.97-8.51Z"/>
        <path class="cls-1" d="M438.68,849.82c-3.12,3.02-7.89,4.53-14.29,4.53h-10.55v22.92h-7.17v-54.89h17.72c6.19,0,10.91,1.5,14.14,4.49,3.23,2.99,4.84,6.85,4.84,11.58s-1.56,8.36-4.69,11.38ZM433.2,845.84c1.89-1.73,2.84-4.2,2.84-7.4,0-6.77-3.89-10.16-11.65-10.16h-10.55v20.16h10.55c3.99,0,6.93-.87,8.82-2.6Z"/>
        <path class="cls-1" d="M490.3,858.36h-34.49c.26,4.25,1.72,7.57,4.37,9.96,2.65,2.39,5.87,3.58,9.65,3.58,3.1,0,5.68-.72,7.76-2.16,2.07-1.44,3.53-3.37,4.37-5.79h7.72c-1.16,4.15-3.46,7.52-6.93,10.12s-7.77,3.9-12.91,3.9c-4.1,0-7.76-.92-10.99-2.76-3.23-1.84-5.76-4.45-7.6-7.84-1.84-3.39-2.76-7.31-2.76-11.77s.89-8.37,2.68-11.73c1.78-3.36,4.29-5.95,7.52-7.76,3.23-1.81,6.94-2.72,11.14-2.72s7.72.89,10.87,2.68c3.15,1.79,5.58,4.24,7.28,7.36,1.71,3.12,2.56,6.65,2.56,10.59,0,1.37-.08,2.81-.24,4.33ZM481.32,845.48c-1.21-1.97-2.85-3.46-4.92-4.49-2.07-1.02-4.37-1.54-6.89-1.54-3.62,0-6.71,1.16-9.25,3.47-2.55,2.31-4,5.51-4.37,9.61h27.25c0-2.73-.6-5.08-1.81-7.05Z"/>
        <path class="cls-1" d="M512.46,835.37c2.34-1.37,5.18-2.05,8.54-2.05v7.4h-1.89c-8.03,0-12.05,4.36-12.05,13.07v23.47h-7.17v-43.15h7.17v7.01c1.26-2.47,3.06-4.38,5.39-5.75Z"/>
        <path class="cls-1" d="M527.94,843.91c1.78-3.33,4.26-5.92,7.44-7.76,3.18-1.84,6.81-2.76,10.91-2.76,5.3,0,9.67,1.29,13.11,3.86,3.44,2.57,5.71,6.14,6.81,10.71h-7.72c-.74-2.62-2.17-4.7-4.29-6.22-2.13-1.52-4.76-2.28-7.91-2.28-4.09,0-7.4,1.41-9.92,4.21-2.52,2.81-3.78,6.79-3.78,11.93s1.26,9.21,3.78,12.05c2.52,2.84,5.83,4.25,9.92,4.25,3.15,0,5.77-.73,7.88-2.2,2.1-1.47,3.54-3.57,4.33-6.3h7.72c-1.16,4.41-3.46,7.94-6.93,10.59s-7.8,3.98-12.99,3.98c-4.09,0-7.73-.92-10.91-2.76-3.18-1.84-5.66-4.44-7.44-7.8-1.79-3.36-2.68-7.3-2.68-11.81s.89-8.36,2.68-11.7Z"/>
        <path class="cls-1" d="M583.1,875.21c-3.28-1.84-5.85-4.45-7.72-7.84-1.86-3.39-2.8-7.31-2.8-11.77s.96-8.31,2.87-11.7c1.92-3.39,4.53-5.98,7.84-7.8,3.31-1.81,7.01-2.72,11.1-2.72s7.8.91,11.1,2.72c3.31,1.81,5.92,4.4,7.84,7.76,1.92,3.36,2.87,7.27,2.87,11.73s-.98,8.39-2.95,11.77-4.63,6-7.99,7.84c-3.36,1.84-7.09,2.76-11.18,2.76s-7.71-.92-10.99-2.76ZM601.33,869.86c2.26-1.21,4.08-3.02,5.47-5.43,1.39-2.41,2.09-5.36,2.09-8.82s-.68-6.4-2.05-8.82c-1.37-2.41-3.15-4.21-5.35-5.39-2.21-1.18-4.59-1.77-7.17-1.77s-5.03.59-7.21,1.77c-2.18,1.18-3.93,2.98-5.24,5.39-1.31,2.42-1.97,5.35-1.97,8.82s.64,6.48,1.93,8.9c1.29,2.42,3,4.21,5.16,5.39,2.15,1.18,4.51,1.77,7.09,1.77s4.99-.6,7.24-1.81Z"/>
        <path class="cls-1" d="M659.21,838.08c3.25,3.18,4.88,7.76,4.88,13.74v25.44h-7.09v-24.41c0-4.3-1.08-7.6-3.23-9.88-2.15-2.28-5.09-3.43-8.82-3.43s-6.79,1.18-9.02,3.54c-2.23,2.36-3.35,5.8-3.35,10.32v23.86h-7.17v-43.15h7.17v6.14c1.42-2.2,3.35-3.91,5.79-5.12,2.44-1.21,5.13-1.81,8.07-1.81,5.25,0,9.5,1.59,12.76,4.77Z"/>
        <path class="cls-1" d="M675.59,843.91c1.78-3.33,4.24-5.92,7.36-7.76,3.12-1.84,6.6-2.76,10.43-2.76s7.06.81,9.84,2.44c2.78,1.63,4.86,3.68,6.22,6.14v-7.87h7.24v43.15h-7.24v-8.03c-1.42,2.52-3.53,4.61-6.34,6.26-2.81,1.65-6.08,2.48-9.8,2.48s-7.3-.95-10.39-2.84c-3.1-1.89-5.54-4.54-7.32-7.95-1.79-3.41-2.68-7.3-2.68-11.66s.89-8.28,2.68-11.62ZM707.48,847.1c-1.31-2.41-3.08-4.26-5.32-5.55-2.23-1.29-4.69-1.93-7.36-1.93s-5.12.63-7.32,1.89c-2.2,1.26-3.96,3.1-5.28,5.51-1.31,2.42-1.97,5.25-1.97,8.5s.66,6.18,1.97,8.62c1.31,2.44,3.07,4.31,5.28,5.59,2.2,1.29,4.65,1.93,7.32,1.93s5.13-.64,7.36-1.93c2.23-1.29,4-3.15,5.32-5.59,1.31-2.44,1.97-5.29,1.97-8.54s-.66-6.09-1.97-8.51Z"/>
      </g>
    </g>
  </g>
</svg>